<svg width="113" height="98" viewBox="0 0 113 98" fill="none" xmlns="http://www.w3.org/2000/svg">
<path d="M55.9962 97.5281C37.9878 97.5281 19.9794 97.5281 1.97104 97.5338C1.47096 97.5338 0.999322 97.4485 0.573121 97.2209C-0.0462896 96.8909 -0.188363 96.0717 0.317394 95.7019C0.618576 95.48 0.965222 95.298 1.38574 95.3093C2.29497 95.3321 3.20419 95.315 4.11341 95.315C5.31814 95.315 6.52286 95.3321 7.72758 95.3093C8.28449 95.298 8.84142 95.2354 9.39264 95.1557C9.86998 95.0875 10.1939 94.7632 10.3075 94.3194C10.4212 93.8757 10.478 93.4091 10.478 92.954C10.4837 72.0974 10.4837 51.2465 10.478 30.3898C10.478 29.9347 10.4155 29.4682 10.3075 29.0244C10.2223 28.666 9.98932 28.3645 9.60289 28.2507C9.30171 28.1654 9.00051 28.063 8.69365 28.0345C7.17637 27.8866 5.70457 27.5509 4.26686 27.056C3.08486 26.6463 1.91424 26.1969 0.862943 25.5028C0.311724 25.1444 -0.114494 24.6551 0.0275727 23.9212C0.090082 23.5969 0.226462 23.267 0.41399 22.9996C1.05613 22.0665 1.73806 21.1619 2.40861 20.2517C3.32352 19.0114 4.24979 17.7769 5.17038 16.5366C5.97732 15.4557 6.78995 14.3747 7.59121 13.2881C8.39246 12.2015 9.19371 11.1148 9.96656 10.0054C10.1427 9.7551 10.2678 9.44219 10.3132 9.14066C10.4042 8.56605 10.4666 7.98575 10.4723 7.40545C10.4951 5.68163 10.478 3.96349 10.478 2.23966C10.478 0.970965 11.0292 0.379287 12.3022 0.28826C12.4726 0.276882 12.6488 0.28826 12.8193 0.28826C42.1305 0.28826 71.4417 0.28826 100.747 0.29395C101.128 0.29395 101.537 0.328085 101.889 0.458937C102.492 0.680816 102.833 1.10182 102.924 1.80728C103.196 3.93504 103.032 6.06849 103.032 8.19625C103.032 9.23169 103.384 10.1021 103.895 10.9214C104.918 12.5485 106.015 14.1358 107.072 15.7458C108.271 17.5778 109.464 19.4154 110.652 21.253C111.004 21.7991 111.368 22.3396 111.692 22.9028C111.857 23.1873 111.982 23.5173 112.039 23.8416C112.175 24.621 111.806 25.1558 111.112 25.4801C109.561 26.1969 107.947 26.7374 106.288 27.1413C105.634 27.3006 104.969 27.4087 104.327 27.5964C103.606 27.8069 103.043 28.0743 103.043 29.1667C103.06 50.6832 103.054 72.1998 103.054 93.7221C103.054 94.712 103.321 94.968 104.276 95.1842C104.788 95.298 105.288 95.3093 105.799 95.3093C107.373 95.3093 108.942 95.315 110.516 95.3093C110.84 95.3093 111.129 95.3662 111.425 95.5085C111.789 95.6791 112.044 95.9238 112.039 96.3277C112.033 96.743 111.834 97.0901 111.425 97.2323C111.067 97.3632 110.692 97.4428 110.317 97.5224C110.152 97.5566 109.976 97.5281 109.8 97.5281H55.9962ZM52.7855 66.101C52.7855 57.0495 52.7855 48.0036 52.7855 38.9521C52.7855 38.7814 52.7912 38.6051 52.7855 38.4344C52.7344 37.5924 52.4275 37.2226 51.5694 37.0178C51.2682 36.9438 50.95 36.8869 50.6431 36.8869C42.2669 36.8812 33.8906 36.8812 25.5144 36.8869C25.1336 36.8869 24.7472 36.9779 24.3665 37.0291C23.8266 37.1031 23.5652 37.5013 23.4686 37.9565C23.3549 38.5254 23.3038 39.1114 23.3038 39.6917C23.2981 57.2998 23.2981 74.9022 23.3038 92.5103C23.3038 93.0906 23.372 93.6765 23.4572 94.2455C23.5311 94.7177 23.8607 95.042 24.3096 95.1444C24.7756 95.2525 25.27 95.3093 25.7473 95.3093C33.9758 95.3207 42.2044 95.315 50.4329 95.315C50.6033 95.315 50.7909 95.3549 50.9443 95.3036C51.3876 95.1614 51.899 95.2638 52.2854 94.8599C52.6946 94.4332 52.7741 93.9439 52.7741 93.3921C52.7741 84.2951 52.7741 75.198 52.7741 66.101H52.7855ZM93.0302 58.6481C93.0302 51.9861 93.0302 45.3183 93.0302 38.6563C93.0302 38.4856 93.0359 38.3092 93.0302 38.1385C92.9961 37.5582 92.6608 37.1543 92.0755 37.0348C91.7232 36.9609 91.3595 36.8926 91.0015 36.8926C82.3752 36.8869 73.7545 36.8869 65.1282 36.8869C64.9805 36.8869 64.8328 36.8698 64.685 36.8869C63.7417 37.0178 63.0995 37.2795 63.0995 38.5482C63.0995 51.9007 63.0995 65.2533 63.0995 78.6115C63.0995 79.8689 63.736 80.2045 64.685 80.2557C65.9352 80.324 67.1911 80.2841 68.4413 80.2614C68.7481 80.2614 69.072 80.1931 69.3561 80.0794C69.8903 79.8632 70.0949 79.1918 69.7653 78.6229C69.4528 78.0824 69.0436 77.6045 68.6856 77.0868C67.9128 75.9774 67.3331 74.7998 67.3672 73.4002C67.407 71.8983 68.0378 70.7491 69.4187 70.1005C70.0437 69.8046 70.7087 69.5714 71.3678 69.3552C72.4191 69.0138 72.9078 67.3924 71.7656 66.6016C71.5724 66.4651 71.3565 66.3513 71.1405 66.2603C70.8791 66.1465 70.595 66.0782 70.3336 65.9587C69.9188 65.7653 69.7596 65.4069 69.7255 64.9631C69.6858 64.4795 69.9869 64.2577 70.3222 64.0472C70.5836 63.8822 70.862 63.8537 71.1575 63.9448C71.2939 63.9846 71.436 64.0301 71.5781 64.0415C72.5157 64.1268 73.2999 64.5421 73.9137 65.2248C74.5444 65.9303 74.8115 66.8406 74.8399 67.7508C74.8627 68.3254 74.6751 68.957 74.4137 69.4804C74.158 69.9981 73.8568 70.5044 73.3397 70.897C72.6748 71.3976 71.9532 71.6593 71.186 71.8641C70.254 72.1088 69.8562 72.5696 69.7483 73.2011C69.6232 73.9066 69.7596 74.612 70.1688 75.2264C70.5097 75.7385 70.8507 76.2505 71.6008 76.1481C72.0156 76.0912 72.2941 75.8238 72.5782 75.5735C72.9249 75.2606 73.209 74.8737 73.5784 74.595C75.3968 73.258 77.4653 72.6094 79.6929 72.4558C80.3862 72.4103 80.8977 72.1372 81.1193 71.4545C81.2273 71.1132 81.2954 70.7604 81.3693 70.4077C81.4773 69.9127 81.5057 69.395 81.6876 68.9342C82.0115 68.1263 82.8809 67.6712 83.6822 68.4961C83.7674 68.5815 83.8526 68.6782 83.9436 68.7578C84.8471 69.5088 85.1142 69.5373 86.0518 68.7351C86.1655 68.6384 86.2564 68.5189 86.3644 68.4222C86.6031 68.223 86.8361 68.0012 87.1032 67.8419C87.4839 67.6086 87.8646 67.5631 88.3135 67.7963C88.7738 68.0353 88.9159 68.4392 89.0125 68.8375C89.2057 69.634 89.3421 70.4475 89.3307 71.2782C89.3194 71.8698 89.3307 72.4558 89.3307 73.0475C89.3194 74.4812 88.8591 75.7556 87.8646 76.7967C87.3248 77.3599 87.1884 78.0199 87.2793 78.7481C87.393 79.6527 88.018 80.2329 88.9273 80.2728C89.7854 80.3069 90.6491 80.324 91.5072 80.2671C92.0755 80.2273 92.6949 80.1249 92.9051 79.4422C92.9847 79.1918 93.0188 78.9244 93.0188 78.6627C93.0245 72.0007 93.0188 65.3329 93.0188 58.6709L93.0302 58.6481ZM56.3258 17.5038C56.3258 16.0303 56.3372 14.5568 56.3201 13.0833C56.3144 12.6793 56.2349 12.264 56.1383 11.8715C56.0473 11.496 55.7746 11.2286 55.4052 11.1262C55.0358 11.0238 54.6494 10.9328 54.2687 10.9271C51.4217 10.91 48.5746 10.8986 45.7276 10.9271C45.04 10.9328 44.3013 11.0181 43.8466 11.678C43.6591 11.9568 43.4886 12.2527 43.3636 12.5599C43.0965 13.2255 42.8579 13.9082 42.6249 14.5852C41.7327 17.1966 40.8576 19.8136 39.9426 22.4136C39.5676 23.4775 40.0393 24.1033 40.8007 24.5243C42.5737 25.5142 44.5002 26.0319 46.4891 26.2197C47.6654 26.3277 48.8644 26.3164 50.0635 26.1343C51.774 25.8726 53.3651 25.3208 54.8937 24.5357C55.4506 24.2512 55.928 23.8928 56.1099 23.2783C56.2349 22.8403 56.3087 22.3794 56.3144 21.9243C56.3371 20.4508 56.3258 18.9773 56.3258 17.5038ZM34.2088 10.9157C32.612 10.9157 31.0209 10.9043 29.424 10.9214C28.941 10.9271 28.4637 11.0124 27.9863 11.0921C27.8272 11.1205 27.6681 11.2229 27.5487 11.331C27.2135 11.6439 26.8953 11.9625 26.685 12.4006C25.7701 14.3406 24.8211 16.2635 23.8834 18.1922C23.2072 19.5804 22.5139 20.9571 21.8604 22.351C21.4683 23.1816 21.7013 23.7904 22.5139 24.2227C23.5368 24.7689 24.6506 25.1046 25.7701 25.3492C26.8952 25.5938 28.0602 25.6678 29.2081 25.81C29.3729 25.8328 29.549 25.8043 29.7195 25.7816C29.9582 25.7531 30.1912 25.6962 30.4299 25.6678C31.0095 25.6109 31.6005 25.628 32.1631 25.4971C33.4701 25.1899 34.7544 24.7917 35.9477 24.1488C36.7604 23.7107 37.34 23.0735 37.6241 22.1746C37.823 21.5374 38.1015 20.9173 38.3174 20.2858C39.1869 17.7712 40.0506 15.2509 40.8973 12.7249C40.9996 12.412 40.9996 12.0535 40.994 11.7179C40.9883 11.4448 40.5905 11.0921 40.3007 11.0636C39.5733 11.0067 38.8516 10.9328 38.1242 10.9157C36.8229 10.8929 35.5215 10.91 34.2202 10.91L34.2088 10.9157ZM58.5364 17.4412C58.5364 19.0399 58.5534 20.6329 58.5364 22.2315C58.525 23.1532 58.9455 23.8416 59.6672 24.3138C60.5935 24.9168 61.605 25.3492 62.6677 25.6962C63.7019 26.0319 64.7475 26.3391 65.8215 26.396C67.1797 26.4643 68.5378 26.4643 69.8846 26.1343C71.3621 25.7759 72.7828 25.2809 74.0784 24.4788C74.732 24.0748 74.9877 23.2158 74.7092 22.4705C74.2319 21.1904 73.7318 19.916 73.2431 18.6416C72.7089 17.2307 72.1861 15.8141 71.6406 14.4032C71.328 13.5953 70.9928 12.8045 70.6404 12.0137C70.4359 11.5472 70.0608 11.2058 69.5721 11.0977C69.0834 10.984 68.5663 10.9498 68.0605 10.9384C67.2024 10.9157 66.3443 10.9328 65.4863 10.9328C63.8667 10.9328 62.2471 10.91 60.6276 10.9441C60.1616 10.9555 59.6445 11.0238 59.241 11.2343C58.7182 11.5074 58.542 12.0592 58.542 12.6623C58.5534 14.2609 58.542 15.8539 58.542 17.4526L58.5364 17.4412ZM10.711 25.8214C10.711 25.8214 10.711 25.8669 10.711 25.884C11.677 25.8043 12.6659 25.81 13.6149 25.628C14.598 25.4402 15.5583 25.1103 16.5016 24.7689C17.7632 24.3138 18.7633 23.5912 19.343 22.277C20.1954 20.337 21.1842 18.4539 22.1161 16.548C22.6787 15.3988 23.2754 14.2666 23.8152 13.106C23.9971 12.7249 24.1051 12.2925 24.1676 11.8715C24.2187 11.5415 23.8607 11.1205 23.5538 11.0693C23.1504 11.001 22.7412 10.9214 22.3321 10.9157C19.485 10.9043 16.638 10.8872 13.791 10.9157C12.9102 10.9271 12.0578 11.1376 11.4668 11.8942C11.2736 12.1389 11.069 12.3778 10.8815 12.6281C9.81315 14.0561 8.73912 15.4841 7.67646 16.9121C6.7445 18.1694 5.81253 19.4267 4.89194 20.6897C4.39755 21.3668 3.89178 22.0438 3.43149 22.7492C3.07916 23.2897 3.11894 24.1829 3.82359 24.3991C4.3464 24.5584 4.8408 24.8315 5.35792 25.0079C6.87519 25.5256 8.43224 25.8328 10.0404 25.7987C10.2621 25.7987 10.4837 25.7987 10.7053 25.7987L10.711 25.8214ZM79.494 10.9157C78.9031 10.9157 78.3121 10.8986 77.7267 10.9157C76.5845 10.9612 75.4366 10.819 74.2944 11.0409C73.3113 11.2343 73.084 11.6382 73.3852 12.5769C73.6807 13.4872 74.0159 14.3861 74.3569 15.285C75.1241 17.3274 75.8969 19.3699 76.6811 21.4066C76.9198 22.0324 77.1471 22.6753 77.471 23.2613C78.0109 24.2398 78.9428 24.7803 79.9259 25.2013C80.8977 25.6166 81.9206 25.8328 82.9832 26.0035C84.222 26.2026 85.4154 26.066 86.6031 25.9011C87.9783 25.7133 89.3023 25.2468 90.6094 24.7689C91.1776 24.5584 91.7345 24.3138 92.1323 23.8245C92.3767 23.523 92.5244 23.2328 92.3028 22.8403C91.9845 22.277 91.7175 21.6854 91.4106 21.1164C90.956 20.2687 90.4843 19.4267 90.0127 18.5904C89.3024 17.3331 88.5806 16.0872 87.8589 14.8356C87.3304 13.9196 86.802 12.9979 86.2451 12.099C85.9496 11.6212 85.5802 11.1546 84.9892 11.0693C84.3186 10.9669 83.6367 10.9271 82.9605 10.9157C81.8069 10.8929 80.6533 10.91 79.4997 10.91L79.494 10.9157ZM95.1668 10.9157C94.0644 10.9157 92.9563 10.9157 91.8539 10.9157C91.2004 10.9157 90.5525 10.9157 89.8933 11.0465C88.9671 11.2229 88.95 11.5131 89.1205 12.3835C89.1432 12.4973 89.2285 12.5997 89.2853 12.7078C89.6149 13.3222 89.9331 13.9423 90.2741 14.5568C90.7173 15.359 91.1662 16.1555 91.6208 16.9463C92.3198 18.1524 93.0302 19.3528 93.7291 20.5589C94.2349 21.4293 94.7009 22.3339 95.2635 23.1702C95.6385 23.7278 96.1272 24.1943 96.7637 24.5186C98.1048 25.2013 99.5141 25.5256 101.014 25.5256C101.651 25.5256 102.299 25.5711 102.929 25.5028C103.691 25.4175 104.447 25.2468 105.191 25.0818C106.265 24.8372 107.356 24.6267 108.328 24.0634C108.856 23.7562 109.033 23.3807 108.805 22.8232C108.629 22.3794 108.402 21.9527 108.14 21.5488C106.788 19.4438 105.424 17.3502 104.055 15.2566C103.287 14.0903 102.532 12.9183 101.708 11.7918C101.469 11.4675 101.048 11.2002 100.656 11.0921C100.105 10.9441 99.5084 10.9328 98.9288 10.9214C97.6786 10.8986 96.4227 10.9157 95.1725 10.9157H95.1668Z" fill="black"/>
<path d="M29.5094 63.1483C31.1801 62.9605 32.4416 64.5421 32.4246 65.9815C32.4019 67.5574 30.9982 68.7578 29.5037 68.7863C27.9296 68.8147 26.6908 67.1535 26.6623 65.8734C26.6339 64.6104 28.083 62.8866 29.5094 63.1426V63.1483Z" fill="black"/>
<path d="M78.0848 61.6691C74.6695 61.6691 71.2599 61.6691 67.8446 61.6691C67.7196 61.6691 67.6002 61.6691 67.4752 61.6691C66.7024 61.6577 66.3103 61.322 66.208 60.5654C66.1853 60.3947 66.2023 60.224 66.2023 60.0477C66.2023 56.0652 66.2023 52.0828 66.2023 48.1003C66.2023 47.9752 66.1966 47.8557 66.2023 47.7305C66.2421 47.0706 66.5546 46.7634 67.2082 46.7634C69.1005 46.7634 70.9928 46.7406 72.8794 46.7804C73.3341 46.7918 73.5898 46.6268 73.8228 46.2912C74.3228 45.58 74.8229 44.8746 75.3287 44.1691C75.4253 44.0326 75.5049 43.8733 75.6242 43.7595C75.8174 43.5774 75.806 43.3726 75.7606 43.1507C75.7208 42.963 75.6753 42.7752 75.6299 42.5875C75.2662 41.1367 76.039 39.8794 77.4881 39.521C79.3236 39.0659 80.9886 40.5963 80.6477 42.6159C80.6477 42.6387 80.642 42.6671 80.6249 42.6842C80.1533 43.2361 80.517 43.64 80.8409 44.0781C81.3864 44.812 81.9206 45.5573 82.415 46.3253C82.6309 46.6553 82.8753 46.7691 83.256 46.7691C85.0745 46.7577 86.8872 46.7634 88.7057 46.7634C89.6888 46.7634 89.9388 47.0137 89.9388 48.0207C89.9388 52.0998 89.9388 56.179 89.9388 60.2582C89.9388 61.2765 89.5581 61.6634 88.5523 61.6634C85.0631 61.6634 81.5796 61.6634 78.0904 61.6634L78.0848 61.6691ZM78.0848 60.0477C81.2045 60.0477 84.3243 60.0477 87.4441 60.0477C87.6146 60.0477 87.7908 60.0363 87.9612 60.0477C88.2056 60.059 88.3363 59.9794 88.3136 59.712C88.3022 59.5925 88.3136 59.4674 88.3136 59.3422C88.3136 55.923 88.3136 52.5038 88.3136 49.0846C88.3136 48.9366 88.3136 48.7887 88.3136 48.6408C88.3022 48.3734 88.1601 48.2426 87.8931 48.2369C87.7453 48.2369 87.5976 48.2369 87.4498 48.2369C81.1591 48.2369 74.8684 48.2369 68.5834 48.2369C68.4129 48.2369 68.2367 48.2141 68.0719 48.2483C67.981 48.2653 67.8673 48.3734 67.8446 48.4588C67.8048 48.6237 67.8275 48.8001 67.8275 48.9708C67.8275 52.4127 67.8275 55.8547 67.8275 59.3024C67.8275 59.4503 67.8332 59.5982 67.8275 59.7461C67.8162 59.968 67.9298 60.0477 68.1401 60.042C68.3106 60.0363 68.4867 60.042 68.6572 60.042C71.7997 60.042 74.9479 60.042 78.0904 60.042L78.0848 60.0477ZM77.9825 46.7691C78.6928 46.7691 79.3975 46.7691 80.1078 46.7691C80.2726 46.7691 80.4431 46.7292 80.6079 46.7065C80.534 46.5642 80.4772 46.4106 80.3863 46.2798C80.0226 45.7222 79.6532 45.159 79.2668 44.6129C79.2043 44.5218 79.0338 44.4535 78.9144 44.4592C78.4087 44.4706 77.8915 44.5958 77.4085 44.5218C77.1244 44.4763 76.9937 44.5616 76.8744 44.7209C76.4482 45.3012 76.039 45.8872 75.6355 46.4789C75.5275 46.6382 75.4992 46.7747 75.789 46.7691C76.522 46.7577 77.2551 46.7691 77.9882 46.7691H77.9825Z" fill="black"/>
<path d="M82.4148 54.3016C82.4148 53.2434 82.4148 52.1909 82.4148 51.1327C82.4148 50.888 82.4262 50.6775 82.6137 50.4557C82.9717 50.029 83.6309 50.0404 83.881 50.5751C84.0742 50.9904 84.256 51.4115 84.4322 51.8268C84.6027 52.225 84.7561 52.6289 84.9209 53.0272C84.9436 53.0841 84.9891 53.1353 85.0232 53.1922C85.0402 53.1239 85.063 53.0499 85.0686 52.9817C85.0686 52.4184 85.0402 51.8495 85.08 51.2863C85.1084 50.8937 85.1141 50.4613 85.6028 50.2679C86.0859 50.0802 86.6143 50.3419 86.6825 50.8596C86.6939 50.9563 86.6825 51.0587 86.6825 51.1554C86.6825 53.2434 86.6825 55.3313 86.6768 57.4249C86.6768 57.6297 86.6484 57.8801 86.5348 58.0394C86.1995 58.5059 85.6142 58.4774 85.2846 57.9768C85.0743 57.6582 84.9379 57.2884 84.7731 56.9414C84.7561 56.9015 84.7732 56.839 84.7561 56.7991C84.5288 56.2871 84.3015 55.7808 84.0685 55.2687C84.0571 55.8092 84.0401 56.344 84.0287 56.8845C84.023 57.1519 84.0515 57.4306 84.0117 57.6923C83.9605 58.0394 83.4491 58.4376 83.1308 58.4149C82.7615 58.3921 82.4091 57.9882 82.4035 57.5501C82.3978 56.4692 82.4035 55.3882 82.4035 54.3073L82.4148 54.3016Z" fill="black"/>
<path d="M73.2884 54.3073C73.1521 55.1549 73.1748 56.1392 72.8225 57.0494C72.6293 57.5387 72.4076 58.0166 71.8735 58.2556C71.2313 58.5457 70.3846 58.3295 70.0437 57.7094C69.697 57.0722 69.4811 56.3838 69.4356 55.6499C69.4186 55.3654 69.2992 55.081 69.3049 54.7965C69.3277 53.4937 69.3845 52.1909 69.9925 50.9848C70.288 50.4045 70.7313 50.1257 71.3904 50.1484C71.9132 50.1655 72.2883 50.4443 72.5099 50.8539C72.7713 51.3318 72.9816 51.8609 73.1009 52.39C73.2316 52.976 73.2259 53.5904 73.2884 54.3016V54.3073ZM71.7201 54.2447C71.7201 54.2447 71.6746 54.239 71.6519 54.2333C71.6519 53.9887 71.6803 53.7383 71.6462 53.4994C71.578 53.0499 71.4757 52.6119 71.3791 52.1681C71.362 52.0998 71.3109 52.0429 71.2768 51.9804C71.2541 52.0486 71.2313 52.1169 71.2086 52.1795C70.8392 53.1865 70.8961 54.2333 70.9302 55.2744C70.9415 55.5816 71.0495 55.8832 71.1233 56.1904C71.1461 56.2814 71.2143 56.3554 71.2654 56.4407C71.3279 56.3554 71.4302 56.2757 71.4473 56.179C71.5496 55.5361 71.6291 54.8876 71.7201 54.2447Z" fill="black"/>
<path d="M75.3856 50.1598C75.8288 50.1428 76.3232 50.1769 76.7721 50.4841C77.7666 51.1497 78.1701 52.2705 77.903 53.4482C77.6416 54.5974 77.0222 55.3598 75.8572 55.6215C75.6583 55.667 75.6356 55.7751 75.63 55.9287C75.63 56.3952 75.647 56.8617 75.6186 57.3282C75.6072 57.5615 75.5788 57.8346 75.4594 58.0166C75.1185 58.5286 74.5218 58.5685 74.1695 57.9995C74.0388 57.789 74.0104 57.4932 74.0104 57.2372C73.999 55.2744 74.0047 53.306 74.0047 51.3432C74.0047 51.218 73.9933 51.0929 74.0104 50.9734C74.0899 50.45 74.4138 50.1769 74.948 50.1655C75.073 50.1655 75.1924 50.1655 75.3799 50.1655L75.3856 50.1598ZM75.63 52.8451C75.63 52.8451 75.6299 52.8451 75.6356 52.8451C75.6356 53.1637 75.6299 53.4823 75.6356 53.8009C75.6356 53.9545 75.7322 54.0285 75.8743 53.9431C76.3971 53.6302 76.5733 52.3729 76.1414 51.9747C76.0448 51.8836 75.8857 51.8609 75.755 51.804C75.7152 51.9292 75.647 52.0543 75.6356 52.1795C75.6129 52.4014 75.6356 52.6233 75.6356 52.8394L75.63 52.8451Z" fill="black"/>
<path d="M78.579 54.1992C78.579 53.1694 78.579 52.1397 78.579 51.1099C78.579 50.4898 78.8972 50.1769 79.511 50.1655C79.9258 50.1598 80.3463 50.1598 80.7612 50.1655C81.3465 50.1769 81.6249 50.3988 81.6704 50.871C81.7159 51.3034 81.409 51.6788 80.9089 51.7756C80.6987 51.8154 80.352 51.7528 80.2952 51.8609C80.1815 52.0714 80.2213 52.3729 80.1986 52.6346C80.1929 52.7086 80.1986 52.7826 80.1986 52.8565C80.2062 53.1941 80.3729 53.378 80.6987 53.4084C81.1249 53.4482 81.5454 53.8464 81.5113 54.1821C81.4772 54.5121 81.0908 54.842 80.6987 54.8819C80.21 54.9274 80.21 54.9274 80.2043 55.4337C80.2043 55.7751 80.2157 56.1221 80.2043 56.4635C80.1929 56.7252 80.3066 56.8162 80.5509 56.7991C80.6702 56.7877 80.7953 56.7877 80.9203 56.7991C81.3351 56.8333 81.6136 57.0722 81.6761 57.4363C81.7443 57.8232 81.6249 58.0792 81.2442 58.2669C81.0794 58.3523 80.8805 58.4035 80.6987 58.4149C80.3804 58.4376 80.0565 58.3921 79.744 58.4262C79.028 58.5059 78.5449 57.9768 78.579 57.2884C78.6245 56.2587 78.5904 55.2289 78.5904 54.1992H78.579Z" fill="black"/>
</svg>
