<svg xmlns="http://www.w3.org/2000/svg" viewBox="0 0 803.57 415.21">
<path d="M340.51 98.22s.04.03.06.03c.04.01.09.04.12.05-.06-.03-.12-.05-.19-.09ZM547.1 286.77c.19.17.36.35.55.54-.19-.19-.38-.36-.56-.54h.01ZM803.52 19.21c-.04-4.41-1.8-8.3-5.22-11.58-3.44-3.31-7.56-4.92-12.59-4.92-3.15 0-5.9.6-8.2 1.78-2.2 1.15-4.19 2.78-5.94 4.89a47.785 47.785 0 0 0-4.32 6.1c.22-.39.46-.76.71-1.15l-31.35 49.29c-.2.04-.41.07-.62.07-1.06 0-2.02-.55-2.6-1.44L708.7 22.93c-4.73-7.59-8.38-12.77-10.81-15.4-3.02-3.26-7.15-4.84-12.62-4.84-1.47 0-2.86.12-4.18.4-1.6-.25-3.32-.37-5.17-.37H573.29c-2.83 0-5.39.31-7.65.95-2.21-.64-4.73-.95-7.54-.95h-85.23c-5.12 0-9.25.76-12.66 2.31-3.16 1.45-5.53 3.57-7.23 6.44l.3-.51-3.36 5.28c-.84-4.26-2.48-7.73-4.94-10.34-3.75-3.95-8.45-5.89-14.34-5.89s-10.41 2.01-13.99 5.98c-.64.71-1.22 1.47-1.75 2.31 0-.01.01-.02.02-.04l-9.47 14.89a44.065 44.065 0 0 0-4.81-5.77c-4.16-4.18-9-7.45-14.45-9.74-4.43-2-9.44-3.33-14.89-3.99-5.28-.62-11.67-.94-19.01-.94h-52.51c-7.86 0-13.74 1.9-17.48 5.64-.82.82-1.55 1.76-2.18 2.78.04-.05.06-.11.09-.16L255.18 50.3c-4.48-10.76-7.55-18.14-7.6-18.26-1.96-4.99-3.62-9.12-4.94-12.25a51.206 51.206 0 0 0-5.1-9.25c-2.17-3.08-5.03-5.63-8.49-7.58-3.53-1.98-7.9-2.98-12.96-2.98s-9.31 1-12.81 2.98c-3.45 1.95-6.25 4.54-8.36 7.71-.19.27-.38.57-.55.87.06-.1.11-.2.18-.29l-10.37 16.3c.4-1.27.75-2.57 1.05-3.87.47-2.08.7-4.07.69-5.92-.03-2.91-.89-5.8-2.57-8.6-1.66-2.77-3.96-5.02-6.83-6.68-2.88-1.67-6.05-2.52-9.41-2.52-4.56 0-8.28 1.15-11.05 3.42-1.82 1.5-3.28 3.15-4.39 4.94.04-.06.07-.14.12-.21l-39.34 61.84c-.51.81-.96 1.65-1.32 2.52-.96 2.28-2.37 6.32-4.22 12l-2.5 7.61c-9.21-26.39-23.89-68.5-23.98-68.73-2.55-7.6-5.09-13.27-7.56-16.86-3-4.33-7.9-6.53-14.58-6.53-5.5 0-9.95 1.82-13.59 5.57-1.1 1.12-2.02 2.28-2.77 3.48.01-.03.02-.05.04-.07L2.58 70.85C.82 73.62-.02 76.6 0 79.87c.01 1.72.3 3.69.85 6.04.52 2.25 1.17 4.37 1.95 6.32.67 1.74 1.35 3.53 2.01 5.37.31.84 10.24 27.04 20 52.81 9.54 25.2 18.92 49.99 18.99 50.18 1.41 3.94 2.83 7.73 4.24 11.27 1.5 3.74 3.27 7.15 5.27 10.12 2.17 3.22 5.04 5.84 8.53 7.8 3.53 1.97 7.83 2.98 12.74 2.98 1.92 0 29.47.49 36.05 0L88 268.33c-4.44 6.99-6.65 14.97-6.57 23.74.1 9.86 2.68 18.27 7.69 25.01 2.91 3.92 6.44 7.35 10.55 10.31L81.66 355.7c-1.76 2.77-2.61 5.89-2.58 9.44.07 7.34 2.61 14.93 7.54 22.55 4.87 7.53 11.26 13.64 19.01 18.17 10.76 6.19 24.47 9.34 40.73 9.34 13.54 0 25.45-2.28 35.37-6.79 10.08-4.59 17.85-11.06 23.07-19.22l28.33-44.54.46 47.56c.07 7.43 1.95 13.14 5.58 17.03 3.71 3.96 8.5 5.97 14.25 5.97s10.38-1.98 13.98-5.92c.64-.7 1.21-1.45 1.73-2.27l25.88-40.67c3.57 9.51 8.59 17.84 14.94 24.78 6.98 7.64 15.77 13.63 26.1 17.81 10.26 4.16 21.98 6.25 34.84 6.25s23.6-1.93 33.93-6.09c10.11-4.07 18.73-10.05 25.65-17.76 2.25-2.51 4.32-5.18 6.2-8l.04 8.85c.08 7.23 1.82 12.88 5.22 16.81 3.53 4.09 8.45 6.18 14.63 6.18 5.83 0 10.43-1.91 14.08-5.84.65-.7 1.24-1.46 1.76-2.28l33.7-52.97s.06.07.1.11c3.53 3.93 7.65 9.79 12.25 17.46l13.14 21.43c3.17 5.17 5.6 8.98 7.44 11.65 2.04 2.93 4.49 5.4 7.32 7.33 3.06 2.08 6.79 3.14 11.11 3.14 3.57 0 6.8-.72 9.59-2.16 1.64-.84 3.08-1.87 4.33-3.1.87.43 1.8.8 2.78 1.11 2.96.96 6.44 1.44 10.43 1.44h87.74c5.93 0 10.55-1.49 13.73-4.41 1-.92 1.86-1.93 2.55-3.02l39.34-61.84s-.06.09-.09.14c1.62-2.5 2.43-5.43 2.41-8.77-.05-4.87-1.76-8.86-5.08-11.87-3.25-2.92-7.89-4.41-13.82-4.41h-21.86l28.9-45.41c-.06.09-.12.18-.19.28 1.67-2.5 2.51-5.44 2.47-8.81-.05-5.27-1.31-8.62-4.19-11.23-3.1-2.78-7.6-4.19-13.38-4.19h-3.39s24.98-39.27 24.94-39.22c1.39-2.12 27.66-47.13 27.66-47.13 2.36-3.71 3.53-8.62 3.47-14.65l-.44-45.73v-.04c.49-.75.96-1.47 1.4-2.17l39.34-61.84c-.16.26-.35.54-.52.81 2.61-4.06 4.49-7.29 5.7-9.81 1.56-3.27 2.35-6.62 2.31-9.94l-.05-.03ZM572.11 30.02s.01-.01.02-.03c3.18-2.93 4.78-6.8 4.73-11.53-.04-4.28-1.45-7.86-4.19-10.7h103.29c5.13 0 8.96 1.1 11.38 3.26 2.4 2.15 3.58 4.9 3.62 8.43.04 3.51-1.11 6.24-3.5 8.36-2.41 2.14-6.22 3.22-11.28 3.22h-28.77c-4.46 0-8.06 3.62-8.01 8.06l1.05 108.84c.05 5.23-.89 9.34-2.77 12.22-.12.19-.25.37-.39.55-.05.07-.1.15-.16.21-.19.24-.37.46-.57.69-2.61 2.85-6.07 4.29-10.28 4.29s-7.83-1.46-10.52-4.34c-2.73-2.92-4.16-7.5-4.21-13.6L610.5 39.11c-.04-4.44-3.71-8.06-8.18-8.06h-28.77c-.89 0-1.72-.04-2.53-.1.32-.25.64-.51.95-.77.05-.04.1-.07.15-.12v-.03ZM455.91 17.4c.24-.77.5-1.5.81-2.17.38-.81.81-1.55 1.31-2.21.06-.07.12-.16.19-.25l.14-.17c.01-.01.02-.04.05-.06.08-.09.15-.16.23-.24.45-.5.95-.96 1.5-1.36.09-.07.19-.14.29-.21.05-.04.1-.07.16-.11.04-.03.06-.05.1-.07.12-.09.26-.16.4-.25.05-.04.1-.06.16-.1.04-.02.06-.04.1-.06.05-.02.1-.06.15-.09.27-.15.56-.3.86-.44 2.73-1.25 6.18-1.86 10.55-1.86h85.23c2.93 0 5.4.39 7.38 1.17 1.19.46 2.2 1.07 3.02 1.81 2.18 1.97 3.26 4.49 3.29 7.73 0 .37 0 .72-.04 1.07 0 .1-.01.19-.02.29-.03.29-.06.57-.1.85 0 .06-.01.12-.03.19-.06.32-.12.64-.21.95l-.06.22c-.07.25-.15.49-.25.72-.02.08-.05.15-.09.21-.1.25-.21.49-.34.72a.27.27 0 0 0-.05.11c0 .01-.02.04-.04.05-.01.03-.02.05-.05.08-.11.2-.24.4-.36.59-.06.09-.14.19-.2.27-.09.12-.17.25-.27.36-.08.1-.15.2-.22.29a8.231 8.231 0 0 1-1.82 1.62c-2.17 1.46-5.29 2.2-9.34 2.2h-66.28c-2.23 0-4.24.91-5.7 2.37a8.391 8.391 0 0 0-1.68 2.5c-.02.06-.05.11-.07.17-.03.06-.04.12-.06.18-.05.11-.09.24-.12.36 0 .03-.01.05-.02.08-.01.02-.01.05-.02.07-.06.22-.12.45-.18.69 0 .05-.02.11-.02.16-.02.11-.04.22-.05.34 0 .08-.03.15-.04.22v.34c-.01.2-.02.39-.02.6l.25 26.11c.04 4.44 3.71 8.06 8.17 8.06h60.51c4.48 0 7.84.96 9.95 2.87 2.11 1.9 3.15 4.36 3.18 7.5 0 .36 0 .7-.04 1.05 0 .18-.04.34-.05.51-.1.97-.31 1.88-.64 2.72-.05.12-.11.23-.16.35-.2.46-.44.9-.71 1.32-.03.04-.05.09-.08.12-.37.56-.82 1.09-1.34 1.57-2.05 1.96-5.39 2.96-9.92 2.96h-60.51c-1.04 0-2.04.2-2.95.56-.05.01-.09.03-.14.05-.3.12-.59.28-.87.43-.08.05-.15.1-.23.15-.17.11-.36.22-.54.35-.06.05-.12.09-.19.14-.16.12-.32.26-.47.4-.65.59-1.2 1.26-1.62 2.02-.02.04-.05.07-.07.12 0 .01-.01.04-.02.05-.06.11-.11.24-.18.36-.05.12-.11.24-.16.36 0 .01 0 .03-.01.05-.05.12-.09.25-.14.38-.01.05-.04.1-.06.16-.01.05-.04.09-.05.14-.06.23-.12.45-.18.69v.04c0 .05-.01.09-.02.14-.02.12-.04.25-.05.37 0 .06-.03.12-.03.19v.09s0 .09-.01.12v.12c-.01.2-.02.4-.02.61l.31 32.28c.04 4.44 3.71 8.06 8.17 8.06h68.78c.57 0 1.14.01 1.68.05 3.79.22 6.73 1.25 8.7 3.03 2.26 2.05 3.38 4.72 3.41 8.16 0 1.22-.12 2.35-.41 3.37 0 .03-.01.05-.02.06-.06.24-.14.46-.23.69-.02.07-.06.15-.1.22-.06.16-.14.34-.21.5-.04.09-.09.16-.14.25-.08.15-.15.3-.23.44-.07.12-.16.26-.24.39-.06.09-.11.19-.17.27 0 0 0 .01-.01.03l-.08.11c-.09.12-.2.25-.29.36-.09.11-.19.25-.29.36-.02.04-.06.06-.09.1l-.04.04c-.22.24-.45.49-.7.71-.56.51-1.2.96-1.91 1.35-2.13 1.16-4.96 1.75-8.43 1.75H474.4c-6.54 0-11.27-1.4-14.04-4.17-2.77-2.77-4.22-7.45-4.28-13.9L454.93 25.8c-.04-3.31.29-6.09.99-8.42Zm-35.52-8c2.65-2.92 6-4.34 10.27-4.34 4.48 0 7.86 1.36 10.63 4.29 1.5 1.57 2.6 3.66 3.3 6.22.1.36.19.74.27 1.12.14.61.25 1.26.34 1.92.09.66.16 1.36.21 2.07.05.71.07 1.45.09 2.22l1.2 125.01c.06 6.05-1.25 10.6-3.87 13.52-.02.02-.05.06-.07.09-2.72 2.97-6.07 4.34-10.55 4.34-4.21 0-7.56-1.43-10.3-4.39-2.73-2.96-4.16-7.53-4.22-13.57l-1.2-125.01c-.06-6.04 1.26-10.58 3.91-13.51h-.01ZM281.84 24.13v-.34c.01-.3.04-.6.05-.89.01-.22.02-.45.04-.66 0-.09.01-.17.02-.26.04-.37.08-.72.12-1.07 0-.1.02-.19.04-.29 0-.06.01-.14.02-.2.08-.47.15-.92.25-1.37a16.23 16.23 0 0 1 .31-1.29c.67-2.43 1.72-4.37 3.16-5.8.16-.16.32-.32.5-.47.05-.04.1-.09.15-.12.29-.24.59-.47.91-.69.91-.62 1.96-1.15 3.14-1.57.28-.1.56-.19.85-.27.33-.1.66-.19 1-.27 2.11-.51 4.57-.77 7.35-.77h52.51c7.14 0 13.33.3 18.4.91 4.86.57 9.29 1.76 13.39 3.57 4.94 2.07 9.21 4.96 12.89 8.64l.04.04c3.69 3.72 6.57 8.1 8.51 13.02 1.96 4.96 2.98 10.27 3.03 15.82.1 10.11-2.4 18.49-7.4 24.95-.21.27-.42.54-.64.8-.04.05-.08.1-.11.14-.04.05-.07.1-.11.14-.35.41-.7.81-1.07 1.21-.51.54-1.04 1.07-1.6 1.59l-.05.05c-.27.25-.56.49-.85.74-.29.25-.55.5-.85.74-.04.03-.06.05-.1.09-.34.27-.67.55-1.02.81a37.537 37.537 0 0 1-2.81 1.96c-.07.05-.15.1-.23.15-.04.02-.06.05-.1.06-.36.24-.74.46-1.11.69-2.27 1.35-4.75 2.57-7.45 3.67-.45.19-.91.36-1.36.54-.99.38-1.86.94-2.61 1.64-.02.03-.05.05-.08.07-.16.16-.31.32-.46.5-.07.09-.15.18-.22.26-.19.24-.38.47-.54.74 0 0-.02.04-.02.05-.15.24-.29.49-.41.75-.04.09-.08.18-.11.26-.03.05-.04.1-.06.15-.06.16-.14.32-.19.49-.03.09-.06.18-.09.26-.09.3-.16.6-.23.91-.17.97-.14 1.97.05 2.92.03.12.05.25.09.37.4 1.59 1.26 3.06 2.52 4.17 1.29 1.14 2.56 2.36 3.81 3.64.76.77 1.51 1.57 2.25 2.41.77.87 1.53 1.76 2.3 2.65a139.751 139.751 0 0 1 11.69 16.01c2.56 4.12 4.79 8 6.65 11.63.37.72.74 1.43 1.07 2.15.69 1.41 1.32 2.77 1.9 4.09 2.93 6.75 3.38 9.45 3.39 10.46.01 1.76-.55 3.56-1.68 5.34-.12.19-.25.38-.39.55.1-.14.2-.29.3-.44-.12.19-.25.36-.37.55-1.12 1.5-2.58 2.73-4.37 3.65-.18.09-.36.17-.55.26-.61.29-1.27.51-1.95.71-.23.06-.45.12-.67.18-.64.15-1.31.26-2 .34-.67.07-1.39.11-2.11.11-1.17 0-2.27-.1-3.31-.3-1.63-.3-3.11-.85-4.39-1.63-.18-.11-.35-.21-.53-.32-.39-.26-.77-.55-1.15-.85-1.42-1.11-2.71-2.4-3.87-3.86-.34-.42-.66-.86-.99-1.31-1.49-2.13-3.37-5.07-5.74-8.9-.5-.8-1.01-1.62-1.55-2.51l-13.13-21.41c-1.79-2.97-3.49-5.69-5.15-8.15-.71-1.06-1.41-2.06-2.1-3.02-.3-.42-.6-.85-.9-1.25-.41-.56-.81-1.1-1.21-1.61-1.2-1.56-2.35-2.96-3.45-4.18-2.21-2.46-4.47-4.47-6.74-6.05 0 0-.01 0-.03-.01-.2-.14-.4-.29-.6-.42-.24-.16-.49-.3-.72-.45.04.02.09.05.14.07-.2-.12-.41-.25-.61-.37-.1-.06-.19-.12-.29-.18-.17-.1-.35-.19-.52-.28.06.04.12.06.19.1-.21-.11-.42-.23-.64-.34-.17-.1-.35-.2-.54-.29-.09-.04-.16-.08-.25-.11-.09-.04-.17-.08-.26-.11-.33-.15-.66-.3-.99-.44-2.97-1.2-6.53-1.95-10.62-2.25-.69-.05-1.37-.09-2.08-.11a77.1 77.1 0 0 0-2.17-.04h-4.86c-.32 0-.65.02-.96.06-.1 0-.19.02-.29.05-.12.02-.26.04-.39.06-.52.11-1.04.26-1.51.47a7.982 7.982 0 0 0-4.88 7.43l.42 44.55c.05 4.69-.67 8.45-2.16 11.25-.19.35-.39.69-.6 1.01-.06.1-.14.2-.21.3 0 .01-.02.02-.02.04-.05.08-.1.14-.15.21-.05.07-.1.14-.16.21-.19.24-.37.46-.57.67-1.01 1.09-2.1 1.96-3.31 2.61-1.21.66-2.52 1.11-3.98 1.37-.97.17-2.01.25-3.11.25-.99 0-1.92-.06-2.81-.2-.35-.05-.7-.12-1.04-.2-1.09-.24-2.1-.57-3.03-1.04.8-.89 1.49-1.79 2.08-2.71.15-.22.29-.46.42-.7.05-.09.1-.19.15-.27l.06-.11s.04-.07.06-.11c.09-.15.15-.31.24-.47.07-.16.16-.31.24-.48 0-.01.01-.02.03-.05 0 0 0-.02.01-.02.11-.26.23-.52.32-.79.01-.04.03-.06.04-.1.02-.07.06-.16.09-.24 0-.02.01-.05.02-.07.11-.3.21-.6.3-.9v-.05c.09-.31.16-.62.24-.95 0-.05.02-.1.04-.15 0-.04.01-.06.03-.1.06-.34.12-.67.17-1.01v-.02c.02-.15.02-.3.04-.45.01-.19.04-.38.05-.57v-.49c0-.28.02-.55.02-.84 0-.85-.09-1.76-.24-2.76-.15-1-.38-2.07-.67-3.25a50.41 50.41 0 0 0-1.02-3.47c-.09-.26-.17-.54-.27-.81-.2-.59-.41-1.2-.65-1.82a74.5 74.5 0 0 0-.77-2.02c-.51-1.31-1.07-2.68-1.7-4.14-.11-.28-3.13-7.51-7.5-18.04l-.87-90.66c0-.59 0-1.15.02-1.7h.08Zm-91.76 10.08c.09-.24.25-.64.44-1.16.06-.18.14-.36.21-.56.06-.15.11-.3.17-.46.12-.31.25-.66.39-1.01s.27-.71.41-1.09c.79-2.05 1.64-4.28 2.12-5.54.04-.11.07-.2.11-.3.01-.05.04-.1.05-.14.05-.12.09-.22.12-.31.07-.2.15-.39.24-.59.15-.39.31-.79.46-1.16.03-.06.05-.12.08-.17.06-.15.12-.29.19-.44.19-.45.38-.89.57-1.31.07-.16.15-.34.22-.49.09-.2.19-.39.27-.59.11-.22.21-.46.32-.69.09-.19.18-.36.28-.55.11-.22.22-.44.34-.66.09-.18.19-.35.28-.52.11-.21.22-.41.34-.61.1-.16.19-.34.29-.5.1-.17.2-.35.3-.51.28-.46.55-.91.84-1.32.84-1.26 1.82-2.41 2.93-3.43.92-.85 1.96-1.62 3.06-2.31.23-.14.45-.27.67-.41 1.79-1.01 3.89-1.7 6.29-2.05 1.26-.19 2.61-.29 4.03-.29 2.36 0 4.51.26 6.43.76.64.16 1.25.35 1.83.56.79.29 1.52.62 2.21 1.01 2.78 1.56 5.08 3.61 6.8 6.05 1.8 2.56 3.35 5.35 4.59 8.3.72 1.7 1.55 3.71 2.46 5.99.75 1.86 1.56 3.91 2.43 6.14 0 0 0 .01.64 1.53.02.08.06.14.09.21.19.44.41 1 .7 1.68.44 1.04 1 2.38 1.72 4.14.26.65.56 1.35.87 2.1.45 1.09.95 2.3 1.51 3.63 5.4 12.98 16.06 38.59 37.15 89.22 1.14 2.66 2.07 5.06 2.82 7.2.45 1.29.82 2.47 1.12 3.57.09.32.18.64.25.95.46 1.85.71 3.4.72 4.63.03 2.46-.69 4.66-2.2 6.78-.01.02-.04.05-.05.07-.23.31-.47.62-.75.95-.06.07-.12.15-.19.23-.27.31-.56.62-.87.94-2.8 2.82-5.95 4.12-9.93 4.12-1.75 0-3.3-.24-4.64-.7-.4-.14-.8-.3-1.16-.47-.25-.12-.49-.27-.72-.41-1.01-.59-1.92-1.31-2.71-2.15-.21-.23-.41-.44-.61-.67-.52-.65-1.07-1.49-1.65-2.48-.66-1.15-1.36-2.53-2.09-4.13-.02-.06-.05-.11-.09-.18-.08-.15-.14-.3-.2-.45-1.22-2.72-2.3-5.18-3.2-7.26-.09-.21-.17-.41-.26-.61-.02-.06-.06-.15-.11-.29-.05-.12-.11-.3-.19-.49-.05-.12-.1-.25-.15-.4-.05-.12-.1-.25-.15-.38-.06-.16-.12-.34-.2-.51-.05-.12-.1-.25-.15-.37 0-.03-.02-.06-.04-.09l-5.23-13.33c-.3-.77-.72-1.49-1.24-2.12-.12-.16-.26-.31-.4-.46-.2-.21-.42-.41-.65-.61-1.46-1.26-3.35-2-5.34-2h-55.86c-1.68 0-3.28.53-4.61 1.45-.16.11-.32.24-.49.36-1.1.89-1.96 2.06-2.46 3.43l-5.89 16.16c-1.5 4.11-2.88 7.5-4.14 10.2-.23.49-.45.96-.67 1.4-.24.46-.46.9-.69 1.31-.22.41-.45.81-.67 1.17-.2.32-.39.62-.57.91-.04.05-.08.11-.1.16-.12.19-.25.36-.37.52-.44.59-.95 1.1-1.55 1.54-.3.22-.61.42-.95.6-1.68.91-3.86 1.38-6.48 1.38-3.31 0-6.1-1.01-8.73-3.16-.32-.26-.64-.54-.95-.82-.32-.31-.62-.61-.91-.92-.27-.31-.54-.61-.79-.92-.05-.06-.11-.14-.16-.2l-.29-.41c-.15-.21-.31-.43-.44-.64-.09-.15-.16-.3-.25-.46-.02-.05-.05-.09-.07-.14-.87-1.61-1.31-3.31-1.34-5.18-.02-2 .3-4.08.95-6.23.31-1.01.7-2.18 1.19-3.53.01-.04.03-.09.05-.12.04-.1.07-.2.11-.3.02-.07.05-.14.07-.21.03-.07.06-.16.09-.25.05-.15.11-.3.16-.45.03-.06.05-.12.06-.19.04-.11.07-.23.12-.34.09-.24.19-.49.27-.74.07-.19.14-.36.21-.55.1-.26.2-.54.31-.8.04-.09.06-.16.1-.25.04-.11.09-.21.12-.32.19-.47.37-.97.57-1.49L190 34.17h.01Zm-86.47 129.33c-2.78-1.55-5.07-3.63-6.79-6.19-1.81-2.67-3.41-5.74-4.77-9.16-1.39-3.47-2.8-7.22-4.18-11.1 0 0-6.34-16.76-19.02-50.26-9.75-25.76-19.67-51.96-19.97-52.76-.65-1.83-1.35-3.67-2.05-5.47-.67-1.72-1.25-3.61-1.73-5.62-.47-1.99-.7-3.61-.71-4.94-.02-2.95.95-5.5 3.05-7.99.26-.31.54-.62.85-.94.67-.69 1.37-1.29 2.11-1.8 2.22-1.54 4.78-2.26 7.88-2.26 4.91 0 8.4 1.45 10.37 4.32 2.21 3.21 4.54 8.45 6.93 15.59.03.05 30.54 87.54 30.84 88.41a8.183 8.183 0 0 0 7.73 5.48c.29 0 .56-.02.84-.05h.09c.06 0 .12-.01.19-.02.2-.02.39-.07.57-.11.1-.03.2-.04.29-.05.05 0 .1-.02.14-.04.22-.06.45-.14.66-.22.04-.01.07-.03.11-.04a2.457 2.457 0 0 0 .52-.23c.12-.06.26-.11.39-.19.05-.02.11-.06.16-.09.25-.14.5-.29.72-.46.03-.02.05-.04.08-.06.22-.16.42-.34.62-.52.04-.04.07-.06.1-.1 0 0 .01-.01.03-.02.04-.04.07-.06.1-.1.26-.26.51-.54.74-.84.03-.04.05-.06.07-.1.47-.64.85-1.36 1.11-2.14 0-.04.03-.07.04-.11l29.23-89.08c1.81-5.56 3.18-9.46 4.08-11.62.71-1.69 1.86-3.26 3.42-4.69.24-.21.47-.42.72-.64 1.85-1.52 4.49-2.28 7.86-2.28 2.45 0 4.76.61 6.85 1.83 2.11 1.22 3.79 2.87 5.01 4.88 1.2 2.01 1.82 4.04 1.85 6.05.01 1.45-.18 3.06-.56 4.77-.24 1.05-.52 2.1-.84 3.13-.21.7-.44 1.4-.69 2.08-.56 1.57-1.12 3.19-1.67 4.78-.06.19-.12.36-.19.55 0 .04-.04.11-.08.21-.69 1.89-5.63 15.52-11.72 32.32-.92 2.53-1.86 5.13-2.82 7.79a79527.275 79527.275 0 0 0-13.45 37.1c-3.41 9.39-5.6 15.45-7.03 19.37-.24.64-.45 1.22-.64 1.76-.11.3-.21.57-.3.84-1.65 4.54-1.66 4.57-1.66 4.58-1.31 3.87-2.65 7.61-3.96 11.13-1.2 3.2-2.6 6.04-4.16 8.51-.12.2-.25.39-.38.59-.29.44-.6.85-.92 1.26-.14.18-.27.35-.43.53-.24.29-.49.56-.75.84-1.3 1.35-2.81 2.53-4.53 3.53-2.73 1.57-6.15 2.37-10.2 2.37s-7.49-.79-10.25-2.33l.08.03Zm141.05 150.82a42.76 42.76 0 0 1-2 5.12c-.46 1-.97 1.99-1.52 2.96-.21.37-.42.75-.65 1.12-.21.35-.41.69-.64 1.04-.2.31-.4.61-.61.91-.12.19-.25.38-.39.56-.49.7-1 1.37-1.54 2.03l-.36.45c-.12.16-.26.31-.4.47-.2.24-.41.49-.62.72-.01.01-.03.04-.05.05-.12.14-.26.27-.39.41-.12.12-.24.26-.36.39-.07.07-.14.15-.21.22-.06.06-.11.12-.17.19-.38.39-.76.77-1.15 1.15l-.02.02c-.29.27-.59.55-.89.82 0 0-.01.01-.03.02-.11.1-.21.2-.32.3-.21.2-.44.39-.66.57-.21.17-.41.36-.62.54-.24.2-.49.4-.74.59-.06.05-.12.1-.2.15-.14.11-.26.22-.41.32-.15.11-.3.23-.45.32-.16.12-.34.25-.5.37-.05.04-.1.07-.15.11-.1.07-.19.15-.29.21-.04.02-.06.05-.1.08-1.09.77-2.22 1.51-3.4 2.22-.32.2-.65.39-.99.59l-.15.09c-.04.02-.07.04-.1.06a.3.3 0 0 0-.08.04c-1.47.84-3.01 1.61-4.62 2.35-9.26 4.21-20.47 6.34-33.29 6.34-15.37 0-28.21-2.91-38.17-8.64-7.03-4.11-12.84-9.66-17.29-16.51-4.41-6.82-6.67-13.49-6.73-19.86-.03-3 .79-5.48 2.52-7.7.31-.4.64-.79 1.01-1.17 2.36-2.43 5.46-3.67 9.17-3.67 3.05 0 5.44.9 7.55 2.82 1.66 1.51 3.12 3.54 4.44 6.19.44.89.86 1.84 1.27 2.86 2.11 5.13 4.43 9.5 6.88 12.98 2.53 3.6 6.1 6.59 10.62 8.91 4.52 2.31 10.45 3.48 17.64 3.48 9.88 0 18.04-2.35 24.24-6.98 0 0 .03-.01.04-.03.3-.22.57-.45.86-.67.06-.05.12-.1.19-.15.05-.04.1-.09.15-.12.06-.05.12-.11.19-.16.24-.2.46-.39.67-.59.04-.04.09-.07.12-.11.07-.07.16-.15.24-.22l.6-.57.34-.34c.2-.2.39-.4.57-.61.07-.09.15-.16.24-.25l.06-.06c.06-.08.12-.15.19-.23.16-.19.32-.39.49-.57.04-.05.09-.1.12-.15.16-.21.32-.42.49-.65.07-.11.16-.21.24-.32.01-.02.04-.05.05-.08.05-.07.1-.15.15-.21.03-.02.04-.06.06-.09.12-.19.26-.39.39-.59.15-.24.27-.46.41-.7 1.79-3.12 2.65-6.59 2.61-10.45-.05-5.68-1.88-10.37-5.44-13.97-3.42-3.44-7.88-6.12-13.22-7.93-5.15-1.73-12.12-3.62-20.69-5.57-11.31-2.63-20.91-5.74-28.53-9.25-7.46-3.45-13.48-8.18-17.87-14.09-4.36-5.85-6.6-13.27-6.69-22.03-.07-8.35 2.16-15.86 6.66-22.33 3.67-5.28 8.78-9.61 15.22-12.93 1.49-.76 3.04-1.47 4.67-2.14 1.1-.45 2.22-.86 3.37-1.25.57-.2 1.16-.39 1.75-.56 7.66-2.35 16.44-3.53 26.17-3.53s17.94 1.19 24.89 3.54c6.94 2.33 12.77 5.48 17.32 9.32 4.55 3.85 7.93 7.91 10.04 12.08 2.1 4.16 3.17 8.25 3.21 12.16 0 .36 0 .72-.02 1.07 0 .14-.03.27-.04.4l-.06.64c-.02.17-.06.35-.1.52-.03.16-.05.32-.09.49-.04.19-.1.36-.15.55l-.12.45c-.06.19-.14.38-.2.55-.05.14-.09.27-.15.41-.08.19-.18.38-.26.56-.06.12-.11.25-.18.37-.1.19-.2.38-.31.55-.07.12-.14.25-.21.37-.11.18-.22.35-.35.52-.09.12-.16.26-.26.39-.04.05-.07.11-.11.16-.04.06-.09.12-.12.19-.06.09-.15.17-.21.26-.19.24-.38.49-.59.72-.01.02-.02.04-.05.06a13.413 13.413 0 0 1-1.81 1.73c-.02.02-.05.05-.07.06-.1.08-.2.14-.3.2-.1.08-.2.14-.31.21-.05.04-.1.06-.15.1-.09.06-.18.12-.27.19-.17.1-.36.19-.54.29-.17.1-.35.2-.54.29-.21.1-.44.17-.66.25-.16.06-.31.14-.47.19-.57.19-1.17.31-1.8.4h-.06c-.2.02-.39.06-.59.09-.21.02-.44.02-.65.02-.23 0-.44.04-.68.04-3.24 0-5.7-.77-7.31-2.3-1.8-1.71-3.82-4.59-5.99-8.59-3.06-6.17-6.77-11.07-11-14.54-4.38-3.6-11.33-5.42-20.67-5.42-8.65 0-15.74 1.95-21.07 5.77-3.1 2.22-5.32 4.74-6.66 7.51-.04.06-.06.14-.09.2-.06.14-.12.29-.19.42-.03.05-.04.09-.06.14-.06.15-.12.29-.17.44-.05.15-.11.29-.16.44-.04.12-.07.25-.12.36-.03.08-.05.15-.07.23 0 .01 0 .02-.01.04-.04.14-.07.26-.11.4l-.15.61c-.04.15-.06.29-.1.44-.04.21-.07.42-.11.65-.02.15-.05.27-.06.42-.02.21-.05.42-.06.65v.09c0 .12-.02.24-.02.36-.02.36-.04.74-.02 1.11.04 3.57 1.02 6.58 3.02 9.2 1.9 2.48 4.51 4.64 7.76 6.4 3.15 1.71 6.38 3.06 9.6 4.03 3.13.94 8.34 2.32 15.46 4.11.01 0 .04 0 .05.01 1.14.26 2.27.54 3.38.81 7.7 1.89 14.7 3.92 20.98 6.09 7.13 2.47 13.28 5.49 18.26 8.99 4.9 3.45 8.8 7.85 11.58 13.11 2.77 5.27 4.22 11.85 4.29 19.55.05 5.19-.66 10.12-2.15 14.75l.06-.02Zm61.17-92.85 1.05 108.84c.05 5.23-.89 9.34-2.77 12.22-.12.19-.25.38-.39.55-.05.08-.1.15-.16.21-.19.24-.37.46-.57.69-2.61 2.85-6.07 4.29-10.29 4.29s-7.83-1.46-10.52-4.34c-2.73-2.92-4.16-7.5-4.21-13.6l-1.05-108.84c-.04-4.44-3.71-8.06-8.18-8.06h-26.87c-.42-1.07-.91-2.15-1.45-3.23-2.42-4.79-6.22-9.4-11.31-13.69-.61-.52-1.26-1.02-1.91-1.52.21-.29.45-.57.71-.85.25-.27.52-.54.82-.79 2.45-2.11 6.15-3.17 11.02-3.17h102.63c5.13 0 8.96 1.1 11.38 3.26 2.4 2.15 3.58 4.9 3.62 8.43.04 3.51-1.11 6.24-3.49 8.36-2.41 2.14-6.22 3.22-11.28 3.22h-28.77c-4.46 0-8.06 3.62-8.01 8.06v-.02Zm174.59 79.11c-.21.67-.45 1.34-.67 2 0 .02-.01.05-.02.08-.08.21-.15.42-.24.64-.11.29-.21.59-.32.87-.06.17-.14.36-.2.54-.09.24-.19.47-.27.71-.17.45-.36.9-.55 1.33 0 0 0 .02-.01.04-.09.21-.18.42-.26.64-.26.61-.52 1.21-.81 1.81-.02.05-.04.1-.06.14-.3.64-.61 1.27-.92 1.9-.1.2-.2.39-.3.59-.09.16-.17.34-.26.5-.14.26-.27.54-.43.8-.12.22-.24.44-.36.65-.02.05-.05.09-.07.14-.21.37-.42.75-.64 1.12-.11.2-.23.4-.35.59-.14.23-.27.45-.41.67-.19.3-.36.6-.55.9-.04.06-.07.12-.12.2-.44.69-.89 1.35-1.33 2.01-.11.16-.23.34-.35.5-.45.65-.91 1.29-1.38 1.91-.01.02-.04.05-.05.06-.49.65-.99 1.27-1.5 1.9l-.37.46c-.12.15-.25.29-.36.43-.4.47-.8.95-1.21 1.41-.62.7-1.27 1.37-1.92 2.03-.1.11-.21.21-.31.32-.27.27-.58.55-.86.82-.36.35-.71.7-1.07 1.04-.14.12-.28.25-.4.36-.17.16-.34.31-.52.47-.45.4-.91.79-1.37 1.17 0 0-.03.01-.04.03-.64.52-1.29 1.04-1.95 1.53-.15.11-.3.23-.45.34-.52.39-1.05.77-1.58 1.15-.59.41-1.19.82-1.8 1.22-.27.17-.56.35-.84.52-.15.09-.29.19-.44.27-.29.17-.59.36-.89.54a66.777 66.777 0 0 1-9.36 4.63 74.561 74.561 0 0 1-11.62 3.62c-.33.08-.64.14-.96.21-.12.02-.26.06-.39.09-.65.14-1.31.26-1.97.39-.05 0-.1.02-.14.02-.42.08-.86.14-1.29.21-.29.05-.57.1-.86.14-.22.04-.46.06-.69.1-.5.07-1 .14-1.51.2-.09 0-.16.02-.25.02-.2.02-.4.05-.6.07l-1.39.15c-.3.02-.61.06-.91.09-.22.03-.46.04-.69.06l-.7.06c-.3.03-.61.05-.92.06-.49.04-.96.06-1.45.09-.3.01-.59.04-.89.05-.34.01-.69.02-1.02.04-.19 0-.39.01-.57.03-.26 0-.52.01-.79.02-.8.01-1.61.02-2.42.02-.6 0-1.18-.02-1.79-.02-.54 0-1.09 0-1.62-.02-.21 0-.41 0-.62-.03-1.07-.04-2.15-.1-3.21-.16-.2-.01-.4-.02-.61-.05-.24-.01-.46-.04-.7-.06-.85-.06-1.71-.14-2.55-.23h-.01a81.18 81.18 0 0 1-3.18-.4c-.2-.03-.39-.05-.59-.09a75.52 75.52 0 0 1-3.01-.5c-.19-.04-.38-.08-.56-.11-1.01-.19-2.01-.4-3.01-.62h-.05c-.5-.11-.97-.25-1.46-.38-.5-.12-1-.24-1.48-.37-.19-.05-.36-.1-.55-.15-.06-.01-.12-.04-.19-.05-.27-.08-.56-.16-.84-.24-.59-.18-1.17-.35-1.75-.54-.21-.06-.41-.14-.62-.2a.923.923 0 0 1-.25-.09c-1.46-.49-2.9-1.01-4.31-1.57-9.62-3.89-17.78-9.45-24.24-16.51-6.48-7.08-11.47-15.73-14.85-25.71-.24-.7-.46-1.39-.67-2.1-.08-.23-.14-.46-.21-.69-.15-.49-.29-.96-.42-1.45-.06-.21-.11-.42-.17-.64-.14-.5-.27-.99-.4-1.49-2.16-8.26-3.31-17.11-3.4-26.37-.11-11.96 1.52-23.07 4.86-33.01a76.03 76.03 0 0 1 4.33-10.39c.55-1.07 1.11-2.11 1.7-3.15.49-.85.99-1.7 1.51-2.52 3.18-.23 5.95-.89 8.29-1.97.04-.01.08-.04.11-.05.95-.45 1.81-.96 2.61-1.55.35-.26.69-.52 1.01-.8.25-.22.5-.45.72-.69.08-.08.14-.15.21-.21.16-.18.33-.34.48-.53.07-.09.14-.16.21-.25.16-.19.31-.39.46-.57.03-.02.04-.05.06-.07.02-.04.06-.08.09-.11.19-.26.38-.52.55-.79.01-.02.04-.05.05-.09.01-.03.04-.05.05-.08.15-.24.29-.48.43-.72.05-.09.1-.17.14-.26.12-.24.24-.48.35-.72.02-.06.06-.12.09-.2.14-.31.25-.62.36-.94.03-.07.05-.15.08-.23.09-.25.16-.51.24-.76.02-.09.05-.19.08-.27v-.02c.07-.29.14-.57.2-.87 0-.05.02-.1.04-.15.06-.34.11-.69.16-1.05 0-.1.02-.19.04-.29.03-.27.05-.55.08-.82 0-.1.01-.21.02-.31.01-.37.02-.74.02-1.12 0-.51-.02-1.02-.07-1.52 4.14-2.9 8.7-5.34 13.63-7.3 3.78-1.5 7.8-2.7 12.03-3.6 6.19-1.31 12.86-1.97 19.92-1.97 11.47 0 21.89 1.67 31.13 4.97 3.77 1.35 7.35 2.95 10.71 4.84 1.25.7 2.47 1.45 3.66 2.21 6.47 4.18 12.02 9.34 16.59 15.43 2.35 3.13 4.44 6.5 6.27 10.12 1.85 3.65 3.38 7.59 4.63 11.82 1.89 6.39 3.11 13.48 3.68 21.37.23 3.02.35 6.17.38 9.44V270c-.09 11.17-1.64 21.48-4.61 30.69v-.07Zm129.3 40.06c-.05.11-.1.24-.15.35-.04.07-.08.15-.12.24 0 .02-.03.04-.04.06-.06.12-.12.25-.2.38-.05.1-.11.19-.17.29-.08.14-.15.26-.24.4-1.11 1.72-2.65 3.11-4.56 4.16-.09.05-.17.1-.27.15-2.06 1.06-4.52 1.6-7.28 1.6-.36 0-.72-.01-1.07-.04-.1 0-.21-.01-.31-.02a6.31 6.31 0 0 1-.76-.08c-.1 0-.2-.02-.3-.04-.1-.01-.21-.04-.31-.05-.22-.04-.46-.06-.69-.11-.1-.01-.19-.05-.27-.06-.25-.05-.49-.11-.74-.17-.32-.09-.64-.19-.95-.3a.21.21 0 0 1-.11-.04c-.16-.06-.32-.14-.49-.2-.15-.06-.31-.12-.46-.19-.19-.09-.36-.19-.55-.27.04.02.09.04.12.06-.16-.08-.32-.16-.49-.25-.11-.06-.21-.14-.33-.2-.17-.11-.36-.21-.52-.33-2.3-1.57-4.32-3.6-5.99-6.02-1.8-2.58-4.18-6.32-7.29-11.4l-13.12-21.41c-4.53-7.55-8.65-13.47-12.27-17.61-.15-.17-.3-.35-.45-.51a.384.384 0 0 0-.09-.09c-.26-.29-.52-.56-.79-.84-.45-.49-.91-.95-1.36-1.39-.2-.19-.39-.39-.59-.56-.06-.06-.12-.12-.19-.17-.11-.1-.22-.19-.33-.29-.01 0-.02-.02-.04-.04-.28-.25-.55-.49-.82-.72a6.452 6.452 0 0 0-.48-.4c-.42-.35-.86-.7-1.29-1.02-.24-.17-.47-.34-.71-.5.01 0 .04.02.05.04-.28-.2-.55-.4-.84-.59-.22-.15-.44-.27-.66-.41.04.02.07.04.1.06-.21-.14-.42-.26-.65-.4-.1-.06-.19-.12-.29-.17-.23-.14-.46-.24-.69-.36.08.04.16.09.24.12-.34-.19-.67-.38-1.01-.54 0 0-.03 0-.04-.01-.22-.11-.45-.2-.67-.3.07.04.15.06.21.1-.35-.16-.7-.32-1.05-.46-.34-.14-.7-.26-1.05-.39-3.78-1.33-8.42-2.01-13.83-2.01h-4.86c-2.05 0-3.91.77-5.33 2.02-.03.01-.04.04-.05.05-.08.06-.14.12-.21.19-.42.41-.81.87-1.14 1.39-.06.1-.12.21-.19.31-.05.09-.1.16-.15.25 0 .02-.03.05-.04.06-.1.19-.19.38-.26.56-.02.06-.05.12-.07.19-.08.17-.14.35-.19.52-.01.05-.04.1-.05.15-.06.23-.12.45-.18.67 0 .06-.02.11-.02.17-.04.19-.06.36-.08.55 0 .07-.01.14-.02.21-.02.24-.04.47-.02.72s.42 44.56.42 44.56c.05 5.29-.87 9.4-2.76 12.26-.04.06-.09.12-.14.19-.09.12-.17.25-.26.37-.05.07-.1.14-.16.21 0 0-.09.1-.12.15-.04.04-.06.07-.1.11-.11.14-.23.27-.35.41-2.11 2.27-4.62 3.58-7.73 4.05-.85.12-1.72.2-2.66.2-4.62 0-8.24-1.48-10.75-4.41-.29-.34-.56-.7-.81-1.07a5.32 5.32 0 0 1-.23-.35c-.19-.29-.36-.59-.52-.9-.06-.12-.14-.25-.2-.38-.21-.42-.42-.87-.61-1.34-.34-.85-.61-1.77-.84-2.75-.17-.75-.34-1.54-.45-2.36-.02-.17-.05-.36-.06-.54-.05-.44-.1-.89-.14-1.35-.01-.19-.02-.38-.04-.57-.04-.62-.06-1.25-.08-1.91v-.05l-.07-17.62c.35-.72.7-1.46 1.02-2.2.32-.74.65-1.48.96-2.25.81-1.98 1.57-4.01 2.25-6.09 3.13-9.69 4.76-20.49 4.84-32.17v-2.35c0-1.14-.04-2.25-.06-3.36 0-.29-.02-.59-.04-.87v.09-.25c-.03-.75-.05-1.5-.09-2.22-.02-.42-.05-.84-.07-1.25-.04-.65-.07-1.3-.12-1.93 0-.11-.01-.21-.02-.32-.02-.34-.06-.67-.09-1l-.15-1.79c-.04-.45-.1-.89-.15-1.34 0-.09-.02-.19-.02-.27-.03-.2-.05-.41-.06-.61-.02-.27-.06-.54-.09-.81-.05-.45-.12-.89-.17-1.34 0-.05 0-.09-.01-.14-.06-.5-.12-1-.2-1.48-.06-.45-.14-.89-.21-1.34-.09-.52-.16-1.04-.25-1.55-.07-.44-.16-.87-.25-1.31-.1-.55-.2-1.1-.31-1.64v-.04c-.12-.62-.27-1.24-.41-1.85-.08-.31-.14-.62-.21-.94-.2-.82-.4-1.65-.62-2.46a.767.767 0 0 0-.05-.19c-.24-.87-.47-1.72-.74-2.57-.09-.27-.18-.52-.25-.8-.17-.57-.36-1.15-.55-1.71-.11-.32-.23-.64-.34-.95-.17-.5-.35-1-.54-1.49-.12-.34-.26-.67-.4-1.01-.17-.46-.35-.91-.54-1.36-.15-.35-.3-.69-.45-1.02-.19-.42-.38-.86-.56-1.29-.16-.35-.32-.69-.49-1.02-.16-.34-.32-.69-.49-1.02-.06-.14-.12-.27-.2-.4l-.25-14.57c0-.59 0-1.15.02-1.7v-.34c.02-.54.05-1.05.1-1.56 0-.09.01-.18.02-.26.04-.34.07-.65.11-.97.01-.12.02-.26.05-.39 0-.06.01-.14.02-.2.03-.16.06-.31.09-.46.05-.3.1-.61.16-.91.03-.1.04-.19.06-.29.1-.41.2-.82.31-1.21 0-.02 0-.05.01-.07 0-.04.02-.08.04-.11.11-.39.25-.76.39-1.11.02-.07.05-.15.09-.22.15-.38.3-.72.47-1.07.04-.07.07-.14.1-.2.09-.16.17-.31.26-.48.09-.16.17-.32.26-.47.44-.69.92-1.31 1.46-1.86 1.37-1.39 3.23-2.43 5.57-3.13 2.32-.7 5.12-1.05 8.35-1.05h52.51c7.14 0 13.33.3 18.4.91 4.31.51 8.29 1.5 11.99 2.97.48.19.95.39 1.41.6 4.96 2.07 9.24 4.97 12.92 8.66 2.13 2.15 3.98 4.52 5.55 7.09 1.15 1.88 2.15 3.86 2.97 5.94 1.67 4.24 2.66 8.76 2.95 13.45.05.79.08 1.56.09 2.36 0 .71 0 1.41-.02 2.1 0 .09 0 .16-.01.25-.01.42-.04.86-.08 1.29-.01.19-.02.37-.04.56-.04.48-.09.96-.14 1.42v.08c-.08.7-.17 1.4-.29 2.08-.1.62-.23 1.25-.35 1.86l-.06.26c-.09.41-.19.82-.3 1.24-.02.1-.05.19-.07.29 0 .05-.02.1-.04.14-.15.54-.3 1.07-.46 1.61-.03.09-.06.17-.09.27v.04c-.14.44-.29.86-.44 1.28-.06.16-.12.34-.19.5-.14.37-.29.75-.44 1.11-.06.15-.12.31-.19.46-.21.5-.44 1-.67 1.5a35.98 35.98 0 0 1-6.13 8.91c-4.24 4.53-10.15 8.25-17.51 11.07-.65.25-1.26.59-1.82.99-.27.2-.54.42-.79.65a7.926 7.926 0 0 0-2.41 4.44 7.98 7.98 0 0 0 .28 3.79 8.25 8.25 0 0 0 2.37 3.68c.49.44.99.87 1.47 1.34.54.5 1.07 1.01 1.6 1.54 1.01 1.01 2.01 2.07 2.99 3.17 5.18 5.82 9.89 12.1 13.98 18.66 4.09 6.58 7.34 12.58 9.62 17.86 1.87 4.32 2.73 6.96 3.11 8.59.21.91.27 1.5.29 1.87 0 1.2-.26 2.41-.79 3.63h-.05Zm110.59-133.73c-.15.21-.3.42-.46.64-.07.1-.15.2-.24.3 0 .01-.03.02-.04.04-.24.27-.5.55-.77.8-.06.06-.15.11-.21.17-2.17 1.86-5.57 2.81-10.12 2.81h-66.28c-2.43 0-4.59 1.07-6.07 2.77-.24.27-.46.57-.66.89-.12.19-.24.36-.34.56 0 .02-.02.04-.04.06-.1.19-.19.37-.28.56-.02.06-.05.12-.07.19-.08.18-.14.35-.19.52-.01.05-.04.1-.05.15-.04.11-.06.23-.09.34l-.09.34s-.03.11-.03.17c-.04.19-.06.36-.08.55 0 .07-.01.14-.02.21 0 .11 0 .22-.01.35 0 .12-.01.25-.01.37l.25 26.11c.04 4.44 3.71 8.06 8.17 8.06h60.51c4.48 0 7.84.96 9.96 2.87 1.47 1.32 2.46 3.11 2.5 7.5 0 .35 0 .7-.04 1.04 0 .09-.01.18-.02.27-.03.28-.05.54-.1.79v.06c0 .05-.01.1-.02.15-.05.31-.12.62-.2.92-.01.06-.04.12-.06.19-.08.24-.15.48-.24.71-.02.07-.06.16-.09.24-.11.27-.22.54-.36.79v.02c-.14.26-.29.51-.44.75 0 0-.05.09-.08.12-.37.56-.82 1.09-1.34 1.57-2.05 1.96-5.39 2.96-9.92 2.96h-60.51c-2.78 0-5.24 1.41-6.68 3.56-.02.02-.04.06-.06.1-.12.19-.24.36-.34.56 0 .02-.01.04-.02.06-.1.19-.19.38-.28.57-.03.06-.05.12-.08.19-.08.17-.14.35-.19.52-.01.05-.04.1-.05.15-.04.12-.06.26-.1.39-.03.1-.05.2-.08.3 0 .05-.03.11-.03.16-.04.19-.06.37-.07.56 0 .08-.01.14-.03.21-.03.24-.04.49-.03.74l.31 32.28c.04 4.44 3.71 8.06 8.17 8.06h68.78c4.63 0 8.13 1.04 10.39 3.08 2.26 2.03 3.38 4.71 3.41 8.15 0 .37 0 .72-.04 1.07v.05c0 .08 0 .15-.01.23-.02.3-.06.59-.11.87 0 .05-.01.11-.03.16-.06.32-.14.65-.22.96-.02.08-.05.15-.08.23-.07.25-.16.5-.25.74 0 .02-.01.05-.02.06-.01.05-.04.09-.05.14-.12.29-.25.57-.4.85 0 0 0 .01-.01.03-.02.05-.05.09-.07.14-.14.24-.28.46-.44.7-.03.04-.05.08-.08.11 0 0-.01.03-.02.04-.18.25-.38.5-.59.74-.04.05-.09.1-.12.15-.22.24-.45.47-.7.71-.56.51-1.2.96-1.91 1.35-2.14 1.16-4.96 1.75-8.43 1.75h-87.74c-4.08 0-7.44-.55-10.07-1.62.15-.27.29-.54.41-.81 0 0 0-.02.01-.04.94-1.98 1.39-4.02 1.37-6.07-.03-2.5-1.27-6.57-3.82-12.42-1.65-3.79-3.76-7.93-6.29-12.36l-.21-54.71c4.79-7.19 7.25-15.84 7.15-25.39-.06-6.15-1.2-12.08-3.38-17.61-1.07-2.72-2.4-5.29-3.96-7.7.06-2.77.4-5.14 1.02-7.18.05-.17.11-.34.16-.5.15-.45.32-.89.5-1.3.04-.07.06-.16.1-.25.14-.3.29-.59.44-.87.05-.09.1-.18.15-.26.1-.16.2-.33.3-.49.04-.06.08-.14.12-.2 1.14-1.66 2.62-2.88 4.59-3.78 2.73-1.25 6.18-1.86 10.55-1.86h85.23c4.69 0 8.2 1 10.39 2.98 2.18 1.97 3.26 4.49 3.29 7.73.03 2.38-.51 4.38-1.62 6.05Zm76.33-180.01c-1.32 2.77-3.57 6.53-6.86 11.52L751.5 97.79a7.983 7.983 0 0 0-1.27 4.41l.44 45.73c.05 5.1-.89 9.14-2.77 12.02-.15.22-.3.44-.45.65-.05.07-.1.14-.16.21-.2.25-.4.5-.61.72-2.67 2.88-6.18 4.36-10.38 4.36s-7.81-1.45-10.47-4.29c-2.7-2.88-4.09-7.48-4.14-13.67l-.44-45.75a7.97 7.97 0 0 0-1.34-4.37l-38.49-58.54c-.75-1.17-1.45-2.28-2.1-3.33 4.87-.42 8.75-1.87 11.53-4.34 3.48-3.08 5.22-7.16 5.17-12.13-.03-2.28-.41-4.38-1.17-6.28-.45-1.15-1.04-2.21-1.75-3.22.2.15.38.31.56.47.19.16.36.34.52.52 2.22 2.4 5.67 7.31 10.24 14.64l24.7 39.32c1.51 2.4 4.08 3.83 6.93 3.83s5.37-1.42 6.84-3.81l24.24-39.37c1.79-2.95 3.28-5.44 4.49-7.46 1.16-1.94 2.47-3.78 3.88-5.48 1.32-1.59 2.8-2.82 4.41-3.66 1.56-.81 3.53-1.22 5.87-1.22 3.7 0 6.58 1.11 9.05 3.48 2.43 2.33 3.62 4.94 3.66 7.98.02 2.55-.59 5.15-1.82 7.73ZM455.34 260.4c-.11-1.82-.26-3.57-.45-5.26-.82-7.29-2.37-13.33-4.72-18.55-1.76-3.89-3.82-7.34-6.19-10.37a40.793 40.793 0 0 0-4.38-4.78 40.873 40.873 0 0 0-8-5.83c-.16-.1-.34-.19-.5-.27-.06-.04-.14-.08-.2-.11-6.77-3.67-14.23-5.47-22.72-5.47-1.6 0-3.17.08-4.72.23h-.05c-.12 0-.26.02-.39.04-.27.02-.55.07-.84.1l-1 .12c-.15.03-.3.04-.44.06-.36.05-.72.12-1.08.19-.33.06-.66.11-.99.17-.07.01-.15.04-.22.05-.08.01-.16.04-.24.05-.56.11-1.11.25-1.66.39-.01 0-.04 0-.05.01-.15.04-.3.08-.45.11-.66.17-1.32.36-1.98.57-.1.04-.21.07-.31.1-.56.19-1.12.37-1.67.59h-.01c-.16.06-.34.12-.5.19a38.533 38.533 0 0 0-3.99 1.79c-.27.14-.54.3-.8.44-.41.22-.82.44-1.22.67-.2.11-.39.24-.57.36-.07.05-.15.1-.24.15-.39.24-.76.46-1.14.71-.24.16-.48.34-.71.5-.04.02-.09.06-.12.09-.04.03-.06.05-.09.06-.31.23-.64.44-.95.67h-.01c-.11.1-.23.19-.34.27-2.3 1.77-4.42 3.78-6.34 6.05-.5.6-1 1.21-1.47 1.85-.02.04-.05.07-.07.11-.41.56-.81 1.12-1.21 1.71-.04.05-.07.11-.11.16-.04.06-.08.11-.11.18-.38.57-.74 1.16-1.1 1.76 0 .01-.01.02-.03.04-.02.05-.06.1-.09.15-.37.64-.74 1.3-1.09 1.97 0 .02-.02.04-.02.06-.09.16-.17.34-.25.5-.12.24-.24.49-.35.72-.15.31-.31.61-.46.94-.07.18-.16.34-.24.51-.32.71-.64 1.43-.94 2.17-.06.16-.12.32-.19.47-.21.52-.41 1.06-.6 1.6-.04.09-.08.19-.1.27-.04.09-.06.19-.1.27-.05.12-.09.25-.14.38-.08.2-.14.41-.2.61-.2.6-.41 1.19-.6 1.8-2.25 7.3-3.35 15.62-3.26 24.68.09 8.62 1.22 16.56 3.35 23.65.12.44.25.87.39 1.3 2.41 7.46 5.84 13.77 10.17 18.71a46.97 46.97 0 0 0 6.1 5.82c2.16 1.71 4.46 3.17 6.85 4.39.69.35 1.37.67 2.08.99 5.6 2.47 11.82 3.71 18.47 3.71 7.63 0 14.38-1.72 21.1-5.39.47-.26.94-.52 1.41-.8.12-.08.25-.14.38-.21.17-.11.35-.23.54-.34 6.88-4.27 12.41-10.8 16.44-19.42 1.8-3.83 3.18-8.08 4.18-12.71.71-3.31 1.21-6.8 1.51-10.5.06-.75.11-1.51.15-2.27v-.14c.04-.7.08-1.4.1-2.11.03-.76.04-1.55.05-2.32v-2.37c0-.82-.02-1.63-.04-2.43-.04-1.6-.11-3.13-.2-4.63l-.02.06ZM314.65 73.97c1.35.96 2.98 1.55 4.76 1.55h22.47c2.16 0 4.24-.05 6.23-.16.66-.04 1.31-.07 1.96-.12 2.85-.2 5.48-.52 7.9-.96 1.35-.24 2.65-.51 3.87-.82.9-.22 1.76-.5 2.6-.77 3.7-1.25 6.75-3.02 9.11-5.3.41-.4.81-.82 1.17-1.25.61-.71 1.15-1.5 1.63-2.32.04-.07.09-.14.14-.21.06-.11.14-.21.2-.34 0-.01.01-.04.02-.05.01-.02.03-.05.04-.07.25-.48.49-.96.7-1.47.15-.38.27-.76.41-1.14.05-.16.12-.31.17-.49.05-.17.1-.36.15-.54.1-.34.19-.69.27-1.04 0-.05.02-.1.04-.15.01-.07.02-.15.05-.22.02-.15.06-.29.09-.44.05-.26.09-.52.14-.79.03-.14.05-.26.06-.4.04-.23.06-.46.1-.69.05-.44.09-.87.12-1.32 0-.16.04-.3.04-.46.04-.71.06-1.45.05-2.2 0-.59-.02-1.17-.07-1.75 0-.09-.02-.16-.02-.24-.04-.49-.09-.97-.16-1.45-.01-.1-.04-.2-.05-.29-.08-.46-.15-.91-.25-1.36-.02-.09-.05-.19-.08-.28 0-.05-.02-.1-.04-.14-.19-.75-.4-1.49-.65-2.2-.06-.17-.11-.35-.17-.52-.05-.14-.11-.26-.16-.39-.02-.06-.05-.11-.08-.16 0-.02-.01-.04-.02-.06-.12-.3-.24-.59-.37-.89-.05-.11-.11-.21-.16-.31-.06-.11-.11-.22-.17-.34-.12-.25-.25-.49-.39-.74 0-.01-.02-.04-.02-.06-.05-.1-.12-.19-.18-.29-.07-.14-.16-.26-.25-.4-.15-.24-.29-.47-.44-.71 0 0-.01-.02-.02-.02-.24-.34-.47-.67-.74-1-.16-.21-.34-.42-.51-.62-.08-.09-.15-.19-.23-.27-.09-.1-.18-.21-.26-.31-.45-.5-.91-.99-1.4-1.45-1.67-1.55-3.61-2.85-5.77-3.88-.09-.05-.19-.09-.29-.12-.31-.14-.61-.29-.94-.42-.24-.1-.5-.2-.76-.29-.09-.03-.17-.06-.26-.09-.19-.06-.36-.12-.56-.19-.11-.04-.22-.06-.34-.1-.19-.05-.38-.1-.56-.16-.12-.04-.25-.06-.39-.1-.2-.05-.4-.1-.6-.14-.14-.03-.28-.06-.41-.09-.21-.05-.44-.09-.65-.14-.14-.03-.27-.05-.42-.08-.25-.05-.51-.09-.77-.14-.12-.02-.25-.04-.38-.06-.39-.06-.79-.11-1.2-.17-.27-.04-.57-.07-.86-.1-.64-.07-1.3-.15-2-.21h-.02c-.56-.05-1.15-.1-1.75-.14-.2-.01-.41-.03-.61-.04-.43-.03-.86-.05-1.31-.07-.24-.01-.47-.03-.72-.04-.46-.03-.92-.04-1.4-.06-.22 0-.45-.01-.69-.03-.67-.03-1.37-.04-2.08-.05h-.09c-1.31-.03-2.7-.04-4.14-.04h-23.35c-.31 0-.62.02-.92.06h-.02s-.06 0-.1.01c-.05 0-.1.01-.15.03-.22.04-.44.07-.65.12-.04 0-.08.03-.11.03-.06.01-.12.02-.19.05-.05.01-.11.04-.16.05-.16.05-.34.1-.5.16-.08.03-.15.05-.21.07-.27.11-.55.25-.81.39-.04.02-.08.04-.11.06 0 0-.01 0-.02.01-.01 0-.02.01-.04.03-.23.12-.44.26-.64.41-.05.04-.11.09-.16.12 0 0-.02.01-.02.02 0 0-.03.03-.04.03-.16.12-.31.25-.45.37l-.03.03h-.01c-.05.06-.11.11-.16.16-.04.04-.08.06-.1.1a7.909 7.909 0 0 0-2.32 5.7l.3 30.75c.02 2.68 1.37 5.06 3.42 6.52l-.05.06Zm262.68 166.52c.02-.12.04-.26.06-.39.07-.39.15-.79.2-1.19.04-.22.06-.46.1-.69.05-.44.09-.87.12-1.32 0-.08 0-.15.01-.23 0-.14.03-.26.03-.4.04-.66.05-1.34.05-2.04 0-.51-.02-1.01-.06-1.51v-.23c-.01-.16-.04-.32-.05-.49-.02-.25-.05-.49-.08-.72-.37-2.95-1.26-5.67-2.66-8.14 0-.02-.02-.04-.04-.06-.14-.25-.3-.49-.45-.72-.14-.23-.26-.44-.41-.66-.25-.36-.5-.7-.76-1.05-.06-.09-.12-.19-.2-.26-.1-.14-.22-.25-.32-.39-.06-.08-.14-.15-.2-.24-1.81-2.11-4.01-3.85-6.58-5.21-.17-.09-.34-.19-.52-.27-.2-.1-.41-.19-.62-.29-.31-.15-.62-.3-.94-.42-.69-.29-1.46-.55-2.32-.77-.87-.24-1.84-.45-2.9-.62-4.23-.74-10.02-1.1-17.74-1.1h-23.34c-2.23 0-4.24.9-5.69 2.36-.39.39-.74.82-1.04 1.29-.1.15-.19.3-.27.45-.02.04-.05.07-.06.11 0 .03-.02.05-.04.06 0 0 0 .02-.01.02-.09.18-.17.35-.25.54-.02.05-.05.11-.07.16v.02s-.01.05-.03.08a.84.84 0 0 1-.04.12s-.04.1-.05.15c-.02.06-.05.12-.07.2-.01.05-.04.1-.05.15-.06.23-.12.45-.18.69 0 .06-.02.11-.02.17-.04.19-.06.38-.08.56v.06s0 .1-.01.15c-.02.24-.04.49-.02.72l.3 30.76c.02 2.68 1.37 5.06 3.42 6.52 1.35.96 2.98 1.54 4.76 1.54h22.47c7.86 0 14.58-.69 19.96-2.06 1.17-.3 2.27-.65 3.33-1.04 1.71-.62 3.27-1.37 4.68-2.23 1.37-.84 2.62-1.77 3.69-2.82.41-.4.81-.81 1.17-1.25.34-.39.64-.79.94-1.21.07-.1.15-.21.21-.31.16-.25.31-.51.46-.76 1.01-1.7 1.77-3.62 2.23-5.78l-.02-.02ZM196.39 101.75a8.22 8.22 0 0 0 6.04 2.66h29.21c2.65 0 5.11-1.29 6.6-3.44.12-.19.24-.37.35-.57.07-.12.15-.25.21-.39.07-.15.14-.31.21-.46.05-.14.11-.26.16-.4.06-.16.1-.32.15-.5.02-.08.05-.16.06-.24.01-.05.04-.11.05-.16.04-.17.06-.35.1-.52 0-.06.02-.12.02-.2.01-.07.02-.14.04-.21.03-.18.03-.36.04-.54 0-.12.01-.24.01-.36v-.16c0-.15-.01-.3-.02-.44 0-.11 0-.22-.03-.34-.07-.64-.22-1.27-.46-1.9l-15.12-40.17c-.15-.41-.34-.8-.55-1.17-.16-.27-.34-.55-.54-.8-.04-.05-.09-.11-.12-.16-.2-.25-.4-.49-.62-.72-.01-.01-.04-.03-.05-.05-.22-.23-.45-.43-.7-.61-.04-.02-.07-.06-.11-.09-.26-.2-.54-.39-.82-.55-.02 0-.04-.03-.06-.04-.29-.16-.59-.31-.9-.45 0 0-.02 0-.02-.01-.04-.01-.09-.04-.12-.05-.28-.11-.56-.2-.86-.29-.03 0-.05 0-.08-.01-.3-.07-.6-.14-.91-.19-.06 0-.11-.01-.17-.02-.34-.04-.68-.07-1.02-.07h-.01c-3.4 0-6.43 2.16-7.54 5.34l-14.09 40.18c-.21.59-.34 1.2-.4 1.8 0 .04 0 .07-.01.12a8.068 8.068 0 0 0 2.11 6.19h-.01Z" style="stroke-width:0;fill:#000"/>

<path class="letter-y" d="M785.76 7.74c-2.33 0-4.31.41-5.87 1.22-1.61.84-3.08 2.07-4.41 3.66-1.41 1.7-2.72 3.54-3.88 5.48-1.21 2.02-2.71 4.52-4.49 7.46l-24.24 39.37c-1.46 2.38-4.02 3.81-6.84 3.81s-5.42-1.43-6.93-3.83l-24.7-39.32c-4.57-7.32-8.01-12.24-10.23-14.64-.17-.19-.35-.36-.52-.52-.18-.16-.38-.32-.56-.47.71 1 1.3 2.07 1.75 3.22.76 1.91 1.15 4.01 1.17 6.28.05 4.97-1.7 9.05-5.17 12.13-2.78 2.47-6.66 3.92-11.53 4.34.65 1.05 1.35 2.16 2.1 3.33L719.9 97.8a8.137 8.137 0 0 1 1.34 4.37l.44 45.75c.06 6.19 1.46 10.78 4.14 13.67 2.66 2.85 6.18 4.29 10.47 4.29s7.71-1.46 10.38-4.36c.21-.23.41-.47.61-.72.05-.07.11-.14.16-.21.16-.21.31-.42.45-.65 1.88-2.9 2.82-6.91 2.77-12.02l-.44-45.73a8.03 8.03 0 0 1 1.27-4.41l38.28-59.33c3.29-4.99 5.54-8.75 6.86-11.52 1.24-2.57 1.85-5.18 1.82-7.73-.03-3.03-1.22-5.64-3.66-7.98-2.48-2.38-5.36-3.48-9.05-3.48Z" stroke-width="0" fill="currentColor"/>

<path class="letter-t" d="M576.87 18.46c.05 4.72-1.55 8.6-4.73 11.53l-.03.03-.15.12c-.3.27-.61.54-.95.77.8.06 1.65.1 2.53.1h28.77c4.46 0 8.12 3.62 8.18 8.06l1.05 108.84c.06 6.12 1.47 10.7 4.21 13.6 2.7 2.88 6.23 4.34 10.52 4.34s7.68-1.45 10.29-4.29c.2-.21.39-.45.57-.69.05-.08.11-.14.16-.21.14-.18.26-.36.39-.55 1.9-2.88 2.82-6.98 2.77-12.22L639.4 39.05c-.04-4.44 3.56-8.06 8.01-8.06h28.77c5.07 0 8.86-1.09 11.28-3.22 2.38-2.11 3.53-4.84 3.49-8.36-.04-3.52-1.22-6.28-3.62-8.43-2.41-2.16-6.24-3.26-11.38-3.26H572.66c2.75 2.83 4.16 6.42 4.19 10.7v.03Z" stroke-width="0" fill="currentColor"/>

<path class="letter-e" d="M569.49 25.45c.09-.1.15-.2.22-.29.16-.21.33-.41.47-.64.12-.2.25-.39.36-.59.03-.05.05-.09.08-.12.15-.27.27-.55.39-.84.03-.07.05-.15.09-.21.09-.24.17-.47.25-.72.02-.07.05-.15.06-.22.09-.31.15-.62.21-.95 0-.06.01-.12.03-.17.05-.28.08-.56.1-.85 0-.09.01-.19.03-.28.02-.35.04-.71.04-1.07-.02-3.23-1.11-5.75-3.29-7.73-2.2-1.97-5.69-2.98-10.4-2.98H472.9c-4.37 0-7.81.6-10.55 1.86-.3.14-.59.29-.86.44-.09.05-.16.1-.25.15-.19.11-.38.22-.56.35-.09.06-.18.11-.26.17-.1.06-.19.14-.29.21-.55.41-1.05.86-1.5 1.36-.08.07-.15.16-.23.24-.06.07-.12.15-.19.22-.06.07-.12.16-.19.25-.5.66-.94 1.39-1.31 2.21-.31.67-.59 1.4-.81 2.17-.7 2.33-1.02 5.12-.99 8.43l1.15 119.27c.06 6.45 1.5 11.13 4.28 13.9 2.77 2.77 7.49 4.17 14.04 4.17h87.74c3.47 0 6.29-.59 8.42-1.75.71-.39 1.35-.84 1.91-1.35.25-.22.47-.46.7-.71.04-.05.09-.1.12-.14.21-.24.4-.49.59-.74.04-.05.06-.1.1-.14 1.19-1.72 1.77-3.78 1.75-6.22-.04-3.45-1.15-6.12-3.41-8.16-2.27-2.05-5.75-3.08-10.39-3.08h-68.78c-4.46 0-8.14-3.62-8.17-8.06l-.31-32.28c0-.25 0-.5.02-.74 0-.07.01-.14.02-.21.02-.19.05-.38.09-.56 0-.05.01-.11.02-.16.05-.24.1-.46.18-.69.01-.05.04-.1.05-.14.06-.18.12-.36.19-.54 0-.01 0-.02.01-.05.05-.12.11-.24.16-.36s.11-.24.17-.36c0-.01.01-.04.02-.05.02-.04.05-.07.08-.12.42-.76.97-1.45 1.62-2.02.15-.14.31-.27.47-.4.04-.03.06-.05.1-.07.52-.39 1.1-.72 1.72-.99.04-.01.09-.04.14-.05.91-.36 1.9-.56 2.95-.56h60.51c4.54 0 7.89-1 9.92-2.96.51-.49.96-1.02 1.34-1.57.03-.04.05-.09.08-.12.27-.43.51-.86.71-1.32.05-.11.11-.22.16-.35.32-.84.54-1.75.64-2.72.01-.18.04-.34.05-.51.02-.34.04-.69.04-1.05-.02-3.16-1.07-5.61-3.18-7.5-2.12-1.91-5.47-2.87-9.95-2.87h-60.51c-4.46 0-8.14-3.62-8.18-8.06l-.25-26.11c0-.25 0-.5.02-.74 0-.08.01-.14.03-.21.02-.19.05-.38.09-.56 0-.05.01-.11.02-.16.05-.24.1-.46.17-.69.01-.05.04-.09.05-.14.06-.19.12-.36.19-.54.02-.06.05-.11.07-.17.25-.57.56-1.1.92-1.6.24-.31.48-.61.76-.9a8.016 8.016 0 0 1 5.7-2.37h66.28c4.03 0 7.16-.75 9.34-2.2.36-.24.7-.5 1-.77.3-.27.56-.56.82-.85h-.05Z" stroke-width="0" fill="currentColor"/>

<path class="letter-i" d="M430.67 5.06c-4.27 0-7.63 1.42-10.27 4.34-2.65 2.92-3.96 7.46-3.91 13.51l1.2 125.01c.06 6.04 1.48 10.61 4.22 13.57 2.73 2.96 6.1 4.39 10.3 4.39 4.47 0 7.83-1.37 10.55-4.34.02-.02.05-.06.08-.09 2.62-2.92 3.93-7.46 3.87-13.52l-1.2-125.01c0-.76-.04-1.5-.09-2.22-.05-.72-.12-1.41-.21-2.07-.09-.66-.2-1.31-.34-1.92-.67-3.08-1.86-5.54-3.57-7.34-2.77-2.93-6.15-4.29-10.64-4.29h.01Z" stroke-width="0" fill="currentColor"/>

<path class="letter-r" d="M483.19 196.23c-.19.3-.36.61-.52.94-.04.06-.07.14-.1.2-.16.34-.32.7-.47 1.06-.02.07-.05.15-.09.22-.14.36-.26.72-.39 1.11 0 .04-.02.07-.04.11-.12.41-.23.84-.32 1.29l-.06.29c-.1.45-.17.9-.25 1.37 0 .06-.01.14-.02.2-.06.44-.11.9-.16 1.36 0 .09-.02.18-.02.26-.05.5-.07 1.02-.1 1.56v.34c-.01.55-.02 1.11-.02 1.7l.25 14.57c.06.14.12.27.2.4.16.34.32.67.49 1.02.16.34.32.67.49 1.02.19.43.38.85.56 1.29.15.34.3.69.45 1.02.19.45.36.91.54 1.36.14.34.27.67.4 1.01.19.49.36.99.54 1.49.11.31.23.62.34.95.19.56.38 1.14.55 1.71.09.26.17.52.25.8.26.85.5 1.71.74 2.57.01.06.02.12.05.19.21.81.42 1.62.62 2.46.07.31.14.62.21.94.14.61.27 1.22.41 1.85v.04c.11.54.21 1.09.31 1.64.09.44.17.87.25 1.31.09.51.17 1.04.25 1.55.07.45.15.89.21 1.34.07.54.15 1.07.22 1.62l.18 1.34c.06.56.12 1.12.19 1.7l.15 1.34c.06.59.1 1.18.15 1.79.04.44.07.87.11 1.32.05.64.09 1.29.12 1.93.02.42.05.84.08 1.25.04.74.06 1.48.09 2.22.01.35.03.69.04 1.04.04 1.1.05 2.22.06 3.35v2.35c-.09 11.67-1.71 22.48-4.84 32.17-.67 2.08-1.42 4.11-2.25 6.09-.62 1.51-1.27 2.99-1.98 4.44l.07 17.62c.02 2.25.23 4.29.6 6.13.25 1.22.59 2.36 1 3.4.61 1.56 1.41 2.89 2.37 4.02 2.52 2.92 6.14 4.41 10.75 4.41.94 0 1.82-.08 2.66-.2 3.11-.46 5.62-1.76 7.73-4.04.12-.12.24-.28.35-.41.07-.09.15-.17.22-.26.05-.08.11-.14.16-.21.09-.11.16-.24.25-.35l.15-.21c1.89-2.87 2.81-6.98 2.76-12.26l-.42-44.55c0-.25 0-.5.03-.74 0-.07.01-.14.02-.21.02-.19.05-.38.08-.55 0-.06.02-.11.02-.18.05-.22.1-.46.17-.67.01-.05.04-.1.05-.15.06-.18.12-.35.19-.52.02-.06.05-.12.08-.19.09-.19.17-.38.26-.56 0-.02.02-.05.04-.06.1-.19.21-.37.34-.56.32-.5.71-.96 1.14-1.39.06-.06.14-.12.21-.19l.05-.05a7.968 7.968 0 0 1 5.33-2.02h4.85c5.41 0 10.05.69 13.83 2.01.35.12.71.25 1.05.39.27.11.56.25.84.37.22.1.45.19.67.3.27.14.54.29.81.42l.69.36c.27.16.55.34.82.51.22.14.44.26.66.41.26.17.52.36.79.55.24.16.47.32.71.5.31.24.62.49.92.74.19.15.37.29.55.44.39.32.76.66 1.14 1.01.11.1.22.19.32.29.25.24.5.49.76.74.46.45.91.91 1.37 1.4.26.28.52.55.79.84.03.04.06.06.09.1.15.16.3.34.45.51 3.62 4.14 7.74 10.07 12.27 17.61l13.12 21.41c3.12 5.08 5.51 8.81 7.29 11.4 1.68 2.42 3.69 4.44 5.99 6.02.17.11.35.23.52.33.11.06.21.14.33.2.15.09.32.16.49.25.14.07.27.15.42.21.15.07.31.12.46.19.16.06.32.14.49.2.2.07.42.14.64.2.12.04.25.09.38.11.25.07.51.12.79.19.09.02.19.05.27.06.22.05.45.07.69.11.14.02.27.05.42.06.75.1 1.54.14 2.36.14 2.76 0 5.22-.54 7.28-1.6 2.05-1.06 3.67-2.51 4.83-4.31.09-.14.16-.26.24-.4.06-.1.11-.19.17-.29.08-.12.12-.25.2-.37l.15-.3c.06-.11.1-.24.15-.35.52-1.21.8-2.42.79-3.63 0-.36-.06-.95-.29-1.87-.39-1.62-1.24-4.27-3.11-8.59-2.28-5.28-5.53-11.28-9.62-17.86-4.09-6.57-8.8-12.84-13.98-18.66-.99-1.1-1.98-2.16-3-3.17-.52-.52-1.06-1.04-1.6-1.54-.49-.45-.97-.9-1.47-1.34-1.14-1-1.93-2.28-2.37-3.68-.39-1.21-.5-2.51-.27-3.8.3-1.72 1.16-3.27 2.41-4.44.25-.24.51-.45.79-.65.56-.4 1.16-.74 1.82-.99 7.38-2.82 13.27-6.54 17.51-11.07a35.98 35.98 0 0 0 6.13-8.91c.24-.49.46-1 .67-1.5.06-.15.12-.3.19-.46.15-.36.3-.74.44-1.11.06-.16.12-.32.19-.5.15-.42.3-.85.44-1.29.04-.1.06-.2.1-.3.16-.52.33-1.06.46-1.61.04-.14.07-.29.11-.42.1-.41.2-.82.3-1.24.02-.09.05-.17.06-.26.12-.61.25-1.23.35-1.86.11-.69.21-1.39.29-2.09v-.07c.05-.47.1-.95.14-1.42.01-.19.02-.37.04-.56.03-.42.05-.85.08-1.29 0-.09 0-.16.01-.25.02-.7.04-1.4.02-2.1 0-.79-.04-1.57-.09-2.36-.29-4.69-1.27-9.21-2.95-13.45-.82-2.08-1.82-4.06-2.97-5.94a37.897 37.897 0 0 0-5.55-7.09c-3.68-3.71-7.96-6.59-12.92-8.66-.46-.21-.94-.41-1.41-.6-3.71-1.49-7.69-2.46-12-2.97-5.08-.6-11.26-.91-18.4-.91h-52.51c-3.23 0-6.03.35-8.35 1.05-2.32.7-4.18 1.75-5.57 3.13-.54.55-1.02 1.16-1.46 1.86l.03.04Zm57.87 14.84c7.7 0 13.51.36 17.74 1.1 2.12.37 3.86.84 5.22 1.41.25.1.49.23.74.34.27.12.56.25.84.37.17.09.35.19.52.27 2.57 1.35 4.77 3.1 6.58 5.21.06.07.14.15.2.24.11.12.22.25.32.39.34.42.66.86.96 1.31.15.21.27.44.41.66.15.24.31.47.45.72 0 .03.03.04.04.06 1.41 2.47 2.29 5.19 2.66 8.14.03.24.06.49.08.72.01.16.04.33.05.49.04.57.06 1.15.08 1.75 0 .7-.01 1.37-.05 2.03 0 .21-.04.41-.05.62l-.12 1.32c-.03.24-.06.46-.1.69-.06.4-.12.8-.2 1.19-.02.12-.04.26-.06.39-.46 2.16-1.22 4.07-2.23 5.78-.15.26-.3.51-.46.76-.07.11-.15.21-.21.31-.3.42-.6.84-.94 1.22-.38.44-.76.85-1.17 1.25-1.09 1.05-2.33 1.98-3.69 2.82-1.41.86-2.97 1.6-4.68 2.23-1.06.39-2.16.74-3.33 1.04-5.38 1.36-12.1 2.06-19.96 2.06h-22.47c-1.77 0-3.41-.57-4.76-1.54-2.03-1.46-3.39-3.84-3.42-6.52l-.3-30.76c0-.25 0-.49.02-.72 0-.08.01-.14.02-.21.03-.19.05-.38.08-.56 0-.06.02-.11.02-.17.05-.24.1-.46.18-.69.01-.05.04-.1.05-.15.04-.11.08-.23.12-.34.02-.06.04-.12.06-.19.02-.06.05-.12.07-.19.09-.19.18-.38.26-.56 0-.02.02-.05.04-.08.1-.19.22-.37.34-.56a8.001 8.001 0 0 1 6.73-3.65h23.34v-.02Z" stroke-width="0" fill="currentColor"/>

<path class="letter-e-2" d="M713.06 256.82c-2.12-1.91-5.48-2.87-9.96-2.87h-60.51c-4.46 0-8.14-3.62-8.18-8.06l-.25-26.11c0-.25 0-.49.03-.72 0-.07.01-.14.02-.21.03-.19.05-.37.08-.55 0-.06.01-.11.03-.17.05-.22.1-.46.17-.69.01-.05.04-.1.05-.15.06-.18.12-.35.19-.52.02-.06.05-.12.08-.19.09-.19.17-.39.27-.56 0-.02.02-.04.04-.06.1-.19.21-.37.34-.56.2-.31.42-.6.66-.89a7.991 7.991 0 0 1 6.07-2.77h66.28c4.56 0 7.95-.95 10.12-2.81.08-.06.15-.11.21-.17.29-.27.56-.55.81-.84.09-.1.15-.2.24-.3.16-.21.32-.41.46-.64 1.11-1.67 1.65-3.66 1.62-6.05-.02-3.23-1.11-5.75-3.29-7.73-2.2-1.97-5.69-2.98-10.39-2.98h-85.23c-4.37 0-7.81.6-10.55 1.86-1.97.9-3.46 2.12-4.59 3.78-.04.06-.08.14-.12.2-.1.16-.2.32-.3.49-.05.09-.1.17-.15.26-.15.27-.3.56-.44.87-.04.08-.06.16-.1.25-.19.41-.35.85-.5 1.3-.05.16-.11.32-.16.5-.62 2.03-.96 4.41-1.02 7.18 1.56 2.41 2.88 4.98 3.96 7.7 2.18 5.53 3.33 11.46 3.38 17.61.09 9.55-2.36 18.2-7.15 25.39l.21 54.71c2.53 4.43 4.64 8.56 6.29 12.36 2.55 5.85 3.79 9.92 3.82 12.42.03 2.06-.44 4.09-1.37 6.07 0 0 0 .02-.01.04-.12.27-.26.55-.41.81 2.63 1.07 6 1.62 10.07 1.62h87.74c3.47 0 6.29-.59 8.42-1.75.71-.39 1.35-.84 1.91-1.35.25-.23.47-.46.7-.71.04-.05.09-.1.12-.14.21-.24.4-.49.59-.74.04-.05.06-.1.1-.14.15-.23.3-.46.44-.7.04-.05.06-.11.1-.16.15-.28.29-.56.4-.85l.07-.2c.1-.24.18-.49.25-.74.03-.08.05-.15.08-.23a9 9 0 0 0 .22-.96c0-.05.01-.1.03-.16.05-.29.09-.57.11-.87 0-.09.01-.19.03-.27.02-.35.04-.71.04-1.07-.04-3.45-1.15-6.12-3.41-8.15-2.27-2.05-5.77-3.08-10.39-3.08h-68.77c-4.46 0-8.14-3.62-8.18-8.06l-.31-32.28c0-.25 0-.49.03-.72 0-.07.01-.14.03-.21.02-.19.05-.37.07-.56 0-.05.01-.11.03-.17.05-.24.1-.46.17-.69.01-.05.04-.1.05-.15.06-.17.12-.36.19-.52.02-.06.05-.12.07-.19.09-.2.17-.39.27-.57 0-.02.01-.04.03-.06.1-.19.22-.37.34-.56.03-.03.04-.06.06-.1a8.028 8.028 0 0 1 6.68-3.56h60.51c4.54 0 7.89-1 9.92-2.96.51-.49.96-1.02 1.34-1.57.02-.04.05-.09.08-.12.16-.24.31-.49.44-.74 0 0 0-.02.01-.04.14-.25.25-.52.36-.79.04-.07.06-.16.09-.24.09-.22.16-.46.24-.71.01-.06.04-.12.06-.19.07-.3.15-.61.2-.92 0-.08.03-.14.04-.21.04-.26.08-.52.1-.79 0-.09.01-.19.03-.27.02-.34.04-.69.04-1.04-.04-4.41-1.04-6.18-2.5-7.5l-.05-.02Z" stroke-width="0" fill="currentColor"/>

<path class="letter-a" d="M199.12 13.53c-.27.42-.56.87-.84 1.32-.1.18-.2.35-.31.52-.09.16-.19.32-.27.49-.11.2-.22.41-.34.62-.09.18-.19.34-.28.51-.11.21-.22.44-.34.66-.09.17-.18.35-.26.54-.11.24-.22.47-.35.72-.09.18-.18.36-.25.55-.12.26-.24.53-.35.8-.07.18-.16.35-.24.54-.12.3-.26.61-.39.92-.06.16-.14.31-.2.47-.19.47-.39.96-.57 1.46-.07.17-.16.42-.29.75-.7 1.82-2.2 5.73-3.1 8.1-.07.2-.15.39-.21.56-.2.52-.35.92-.44 1.16l-39.78 103.04c-.2.51-.4 1-.57 1.49-.04.11-.09.21-.12.33-.14.36-.28.71-.41 1.06-.06.15-.11.3-.18.45-.11.29-.21.56-.31.84-.06.18-.12.34-.19.51-.09.24-.18.47-.26.7-.06.18-.12.34-.17.5-.01.05-.03.09-.05.12-.49 1.35-.87 2.52-1.19 3.53-.65 2.13-.97 4.23-.95 6.23.01 1.87.46 3.57 1.34 5.18.03.05.05.09.08.14.09.15.16.31.25.46.14.21.29.42.44.64.1.14.19.29.29.42.21.29.45.56.7.84.06.06.11.14.16.2.31.34.65.69 1 1.02.31.3.64.56.95.82 2.62 2.15 5.42 3.16 8.72 3.16 2.63 0 4.81-.46 6.48-1.39.34-.19.65-.39.95-.6.6-.44 1.11-.95 1.55-1.54.12-.16.25-.34.38-.52.04-.05.08-.11.1-.16.19-.27.37-.59.57-.91.21-.36.44-.75.67-1.17.23-.41.45-.85.69-1.31.22-.44.45-.91.67-1.4 1.26-2.7 2.65-6.09 4.14-10.2l5.89-16.16c.5-1.37 1.36-2.55 2.46-3.43.15-.12.31-.25.49-.36a8.059 8.059 0 0 1 4.61-1.45h55.86c1.98 0 3.88.75 5.34 2 .22.19.44.39.65.61.14.15.27.3.4.46.51.64.92 1.35 1.24 2.12.23.57 3.52 8.97 5.23 13.33 0 .02.02.06.04.09.05.12.1.26.15.38.08.17.14.35.2.51.05.14.1.26.15.38.05.14.11.27.15.4.15.39.26.66.3.77.09.2.17.41.26.61.89 2.1 1.97 4.54 3.2 7.26.06.15.14.3.2.45.03.06.05.11.09.17.72 1.6 1.42 2.98 2.08 4.13.57 1 1.12 1.82 1.65 2.48.19.24.4.46.61.67.79.84 1.7 1.56 2.71 2.15.24.14.47.29.72.41.36.17.76.34 1.16.47 1.35.46 2.9.7 4.64.7 3.98 0 7.14-1.31 9.94-4.12.31-.31.6-.62.87-.94.02-.02.04-.05.06-.07.04-.05.09-.1.12-.15.26-.31.51-.62.75-.95.01-.02.04-.05.05-.07 1.51-2.12 2.22-4.33 2.2-6.78 0-1.24-.25-2.78-.72-4.63-.08-.31-.16-.62-.25-.95-.81-2.92-2.13-6.53-3.94-10.77-23.25-55.86-33.84-81.28-38.66-92.85-.31-.76-.61-1.46-.87-2.1-.74-1.76-1.3-3.11-1.72-4.14-.29-.69-.53-1.25-.7-1.69-.02-.07-.06-.15-.09-.21-.64-1.52-.64-1.53-.64-1.53-.87-2.23-1.68-4.27-2.43-6.14-.91-2.28-1.75-4.29-2.46-5.99-1.25-2.95-2.8-5.74-4.59-8.3-1.72-2.45-4.01-4.48-6.8-6.05-.69-.39-1.42-.72-2.21-1.01-.59-.21-1.2-.4-1.83-.56-1.92-.5-4.06-.76-6.43-.76-1.42 0-2.76.1-4.03.29-2.4.35-4.51 1.04-6.29 2.05-.24.12-.45.27-.67.41-1.11.69-2.14 1.45-3.06 2.31-1.11 1.02-2.1 2.17-2.93 3.43l-.04-.05Zm17.21 34.59h.01c1.06 0 2.08.21 3.03.59 1.7.69 3.15 1.92 4.07 3.53.21.37.4.76.55 1.17l15.12 40.17c.24.62.39 1.25.46 1.9.01.11 0 .23.03.34.01.19.04.38.04.56 0 .14 0 .26-.01.4 0 .17-.01.36-.04.54-.01.14-.04.27-.06.41-.03.18-.05.35-.1.51-.04.14-.07.27-.11.41-.05.16-.1.34-.15.5-.05.14-.11.26-.16.4-.06.16-.14.31-.21.46-.06.12-.14.26-.21.39-.11.19-.21.39-.35.57a8.027 8.027 0 0 1-6.6 3.45h-29.21c-2.3 0-4.49-.99-6.04-2.66a8.068 8.068 0 0 1-2.11-6.19c0-.04 0-.07.01-.12.06-.61.2-1.21.4-1.8l14.09-40.18c1.11-3.18 4.14-5.33 7.54-5.34h.03Z" stroke-width="0" fill="currentColor"/>

<path class="letter-r-2" d="M282.69 116.48c4.38 10.52 7.39 17.76 7.5 18.04.62 1.46 1.19 2.83 1.7 4.14.28.7.53 1.37.77 2.02.23.62.45 1.24.65 1.82.1.28.19.55.28.81.4 1.24.75 2.38 1.02 3.47.6 2.33.9 4.31.91 5.99 0 .36 0 .71-.03 1.06 0 .09 0 .18-.01.26-.02.34-.05.69-.1 1.02v.03c-.05.34-.1.69-.18 1.01-.01.09-.04.16-.05.25-.08.32-.15.64-.24.95 0 .01 0 .04-.01.05-.1.32-.2.65-.33.97-.02.07-.06.16-.09.24-.11.3-.24.6-.36.89 0 .02-.02.05-.04.07-.15.31-.3.62-.48.94-.04.07-.09.15-.12.24-.05.09-.1.19-.15.27-.14.24-.28.46-.43.7-.59.92-1.29 1.82-2.08 2.71.94.45 1.95.8 3.03 1.04.34.08.69.14 1.04.2.89.14 1.83.2 2.81.2 4.41 0 7.71-1.35 10.4-4.24.2-.21.39-.45.57-.67.05-.07.1-.14.16-.21.05-.07.1-.15.15-.21.08-.11.16-.22.24-.35.21-.32.41-.66.6-1.01 1.47-2.8 2.2-6.57 2.16-11.25l-.42-44.55c-.04-3.33 1.98-6.2 4.88-7.43.49-.2.99-.36 1.51-.48.12-.02.25-.04.39-.06.1-.01.19-.04.29-.05.31-.04.64-.06.96-.06h4.86c.74 0 1.46.01 2.17.04.71.02 1.41.06 2.08.11 4.08.3 7.65 1.05 10.62 2.25.33.14.66.29.99.44.17.07.34.15.51.23.33.16.65.34.97.51.17.1.35.17.52.27.26.15.51.31.77.47.24.15.49.29.72.45.2.12.4.27.6.42 0 0 .01 0 .02.01 2.27 1.59 4.53 3.6 6.74 6.05a66.5 66.5 0 0 1 3.45 4.18c.4.52.8 1.06 1.21 1.61.3.41.6.82.9 1.25.69.96 1.38 1.97 2.1 3.02 1.65 2.46 3.37 5.18 5.15 8.15l13.13 21.41c.54.87 1.05 1.71 1.55 2.51 2.37 3.82 4.27 6.76 5.74 8.9.31.45.65.89.99 1.31a23.163 23.163 0 0 0 5.02 4.71c.16.11.35.21.52.32 1.29.79 2.75 1.34 4.39 1.64 1.04.19 2.14.3 3.31.3 2.52 0 4.78-.45 6.73-1.35.19-.09.37-.16.55-.26 1.79-.92 3.24-2.15 4.37-3.65.16-.21.31-.44.46-.66 1.14-1.77 1.71-3.57 1.69-5.34 0-1-.46-3.71-3.4-10.46-.57-1.32-1.2-2.68-1.9-4.1-.35-.7-.7-1.42-1.07-2.15-1.87-3.62-4.09-7.51-6.65-11.63-.85-1.36-1.74-2.71-2.63-4.04a139.751 139.751 0 0 0-11.36-14.62c-.74-.82-1.5-1.62-2.25-2.41a71.738 71.738 0 0 0-3.81-3.65 8.224 8.224 0 0 1-2.52-4.17c-.04-.12-.06-.25-.09-.37-.19-.96-.21-1.95-.05-2.92.05-.31.14-.61.23-.91.02-.09.06-.17.09-.26.08-.21.15-.42.25-.64.04-.09.08-.17.11-.26.12-.25.26-.5.41-.75 0-.01.03-.04.03-.05.16-.25.34-.5.54-.74.08-.09.15-.17.22-.26.15-.17.3-.34.46-.49.02-.03.05-.05.07-.07a8.02 8.02 0 0 1 2.61-1.64c.46-.17.91-.35 1.36-.54 2.7-1.1 5.18-2.32 7.45-3.67.38-.22.75-.45 1.11-.69.04-.03.06-.05.1-.06a80.592 80.592 0 0 0 2.03-1.36c.34-.25.67-.49 1.01-.75.35-.26.69-.54 1.02-.81.04-.02.06-.05.1-.09.59-.49 1.15-.97 1.7-1.47l.05-.05c.55-.51 1.09-1.05 1.6-1.58.37-.4.72-.8 1.07-1.21.08-.1.15-.19.24-.29.21-.26.43-.52.64-.8 5.01-6.46 7.5-14.84 7.4-24.95-.05-5.54-1.07-10.86-3.03-15.82-1.96-4.93-4.82-9.31-8.51-13.02l-.04-.04c-3.68-3.68-7.94-6.55-12.89-8.64-4.09-1.81-8.54-2.98-13.39-3.57-5.08-.6-11.26-.91-18.4-.91h-52.51c-2.78 0-5.24.26-7.35.77-.34.09-.67.17-1 .27-.29.09-.57.17-.85.27-1.19.42-2.24.95-3.15 1.57-.32.21-.62.45-.91.69-.05.04-.1.09-.15.12-.18.15-.34.31-.5.47-1.42 1.44-2.47 3.37-3.16 5.8-.09.32-.17.66-.25 1l-.06.29c-.09.45-.18.9-.25 1.37 0 .06-.01.14-.03.2-.06.44-.11.9-.16 1.36 0 .09-.01.18-.02.26-.05.5-.08 1.02-.1 1.56v.34c-.01.55-.02 1.11-.02 1.7l.87 90.66-.05.05Zm30.67-85.59s.11-.1.16-.15c.17-.16.35-.3.54-.45 0 0 .03-.01.03-.03.55-.41 1.15-.77 1.8-1.04.07-.03.14-.05.21-.08.21-.09.44-.16.66-.22.06-.01.12-.04.19-.05.65-.16 1.31-.26 2.01-.26h23.33c1.45 0 2.82.01 4.14.04 3.28.06 6.17.2 8.67.42 1 .09 1.95.19 2.83.31 3.11.41 5.5.99 7.3 1.74.29.11.55.25.84.37.12.06.26.11.39.18 2.17 1.04 4.11 2.33 5.77 3.88.49.46.95.95 1.4 1.45.09.1.17.2.26.31.52.61 1.04 1.25 1.48 1.92.16.22.3.47.44.71.14.22.29.45.42.67.15.26.28.53.41.79.11.21.24.42.34.65.15.31.27.62.4.94.07.19.16.36.24.55.06.18.12.35.17.52.25.71.48 1.45.65 2.2 0 .04.01.06.02.1.02.11.06.21.09.32.1.42.16.86.24 1.3.02.11.05.22.06.35.06.44.11.89.15 1.34 0 .12.03.24.04.36.04.57.06 1.15.07 1.75 0 .75 0 1.49-.05 2.2 0 .16-.04.31-.04.46l-.12 1.32c-.03.24-.06.46-.1.69-.06.4-.12.8-.2 1.19-.05.23-.09.44-.14.66-.09.4-.2.79-.31 1.17l-.15.54c-.17.55-.36 1.09-.59 1.61 0 0 0 .02-.01.02-.21.51-.45 1-.7 1.47-.01.02-.02.05-.04.07 0 .01-.01.04-.02.05-.06.11-.14.22-.2.34-.04.08-.09.15-.14.21-.49.82-1.02 1.61-1.64 2.32-.37.44-.76.85-1.17 1.25-2.36 2.28-5.42 4.06-9.11 5.3-.84.29-1.7.55-2.6.77-1.22.31-2.51.57-3.87.82-2.43.43-5.07.75-7.9.96-2.57.19-5.29.28-8.19.28h-22.47c-1.77 0-3.41-.57-4.76-1.55-2.05-1.46-3.4-3.84-3.42-6.51l-.3-30.76c-.02-2.22.87-4.24 2.32-5.7.04-.04.07-.06.1-.1h.05Z" stroke-width="0" fill="currentColor"/>

<path class="letter-o" d="M362.45 201.87c0 .37 0 .75-.02 1.12 0 .1 0 .21-.03.31-.01.28-.04.56-.07.82 0 .1-.02.19-.04.29-.05.35-.1.7-.16 1.05 0 .05-.02.1-.02.15-.06.3-.12.59-.2.87-.02.1-.05.2-.07.3-.08.26-.15.51-.24.76-.03.07-.05.15-.08.23-.11.31-.24.62-.36.94-.02.06-.06.12-.09.2-.11.25-.23.49-.35.72-.05.09-.09.17-.14.26-.14.24-.27.49-.42.72-.04.05-.06.1-.1.16-.18.27-.35.54-.55.79-.05.06-.1.12-.15.19-.15.2-.3.39-.46.57-.08.09-.14.16-.21.25-.15.17-.31.35-.48.52-.07.08-.14.15-.21.21-.24.24-.47.46-.72.69-.32.29-.66.55-1.01.8-.8.59-1.67 1.11-2.61 1.55-.04.01-.07.04-.11.05-2.33 1.09-5.1 1.75-8.29 1.97-.52.82-1.02 1.67-1.51 2.52-.59 1.02-1.16 2.07-1.7 3.15a76.03 76.03 0 0 0-4.33 10.39c-3.35 9.95-4.98 21.06-4.86 33.02.09 9.27 1.22 18.11 3.39 26.37.12.5.26 1 .4 1.49.06.21.11.42.18.64.14.49.29.97.42 1.45.08.22.14.46.21.69.23.7.45 1.4.67 2.1 3.38 9.98 8.38 18.63 14.85 25.71 6.46 7.08 14.62 12.63 24.24 16.51 1.4.56 2.85 1.09 4.31 1.57.09.03.18.05.25.09.21.06.41.14.62.2.57.19 1.16.36 1.75.54.27.09.56.16.84.24.06.01.12.04.19.05.19.05.36.1.55.15.97.26 1.96.51 2.95.75h.05c.99.22 1.98.42 2.99.62a69.47 69.47 0 0 0 3.56.61c.2.02.4.05.59.09 1.05.15 2.11.29 3.18.4h.03c1.06.11 2.15.21 3.23.29.2.01.4.02.61.05 1.06.08 2.12.12 3.21.16.21 0 .41.01.62.02 1.12.04 2.25.06 3.4.06.82 0 1.62 0 2.42-.02.26 0 .52-.01.79-.02.54-.01 1.07-.02 1.6-.05.3-.01.6-.03.9-.05.49-.02.96-.05 1.44-.09l.92-.06c.46-.04.92-.08 1.39-.11.3-.02.61-.05.91-.09l1.39-.15c.29-.04.56-.06.85-.1.5-.06 1-.14 1.5-.2.22-.04.46-.06.69-.1.72-.11 1.43-.22 2.15-.35.05 0 .1-.03.15-.03.66-.12 1.32-.25 1.97-.39.12-.02.26-.06.39-.09.33-.06.64-.14.96-.21 4.01-.9 7.85-2.1 11.62-3.62a65.71 65.71 0 0 0 9.36-4.63c.3-.18.59-.35.89-.54.15-.09.29-.19.44-.27.27-.17.56-.35.84-.52.61-.4 1.21-.8 1.8-1.22.54-.38 1.06-.76 1.59-1.15.15-.11.3-.23.45-.34.66-.5 1.31-1.01 1.95-1.54l.04-.02c.46-.39.92-.77 1.37-1.17.17-.15.35-.31.52-.47.14-.12.27-.25.4-.36.66-.6 1.3-1.22 1.93-1.85.11-.11.21-.21.31-.32.66-.66 1.3-1.35 1.92-2.04.54-.6 1.06-1.21 1.57-1.83.12-.15.25-.31.38-.46.51-.62 1.01-1.25 1.5-1.9.01-.02.04-.04.05-.06.48-.62.92-1.26 1.39-1.9.11-.16.24-.34.35-.5.46-.66.91-1.33 1.34-2.01.04-.06.07-.12.12-.2.32-.52.65-1.05.96-1.57.11-.2.22-.4.35-.59.24-.41.47-.82.71-1.25.12-.21.24-.44.36-.65.24-.42.46-.86.69-1.3.1-.2.2-.39.3-.59.31-.62.62-1.26.92-1.9.02-.05.04-.1.06-.14.27-.6.55-1.2.81-1.81.09-.21.17-.42.26-.64.19-.45.38-.91.56-1.37.1-.24.19-.48.27-.71.17-.46.36-.94.52-1.41.08-.21.16-.42.24-.64.24-.69.47-1.36.7-2.06 2.97-9.21 4.52-19.52 4.61-30.69v-2.25c-.03-3.27-.16-6.4-.38-9.44-.57-7.89-1.8-14.98-3.68-21.37-1.25-4.23-2.78-8.18-4.63-11.82a67.555 67.555 0 0 0-6.26-10.12c-4.57-6.09-10.11-11.25-16.59-15.43-1.19-.77-2.41-1.51-3.66-2.21a71.203 71.203 0 0 0-10.71-4.84c-9.24-3.3-19.66-4.97-31.13-4.97-7.08 0-13.73.66-19.92 1.97-4.23.9-8.26 2.08-12.03 3.6-4.93 1.96-9.49 4.41-13.63 7.3.04.5.06 1 .08 1.52h.01Zm27.22 11.66c.62-.27 1.26-.54 1.91-.79.17-.06.35-.12.52-.2.55-.2 1.11-.4 1.67-.59.1-.04.21-.08.31-.1.65-.21 1.31-.4 1.98-.57.18-.05.34-.09.51-.12.55-.14 1.1-.26 1.66-.39.16-.04.31-.06.47-.1.69-.14 1.37-.26 2.06-.36l.44-.06c.32-.05.66-.09 1-.12.27-.04.55-.07.84-.1.12-.01.26-.02.39-.04h.05c1.55-.15 3.12-.23 4.72-.23 8.49 0 15.94 1.8 22.72 5.47.06.04.14.07.2.11.16.09.34.19.5.27.54.3 1.07.61 1.6.94 7.39 4.59 12.94 11.13 16.96 20.05 2.89 6.42 4.58 14.09 5.17 23.8.09 1.5.16 3.03.2 4.63.02.8.04 1.61.04 2.43v2.37c0 .79-.02 1.56-.05 2.32-.02.71-.05 1.41-.1 2.11v.14c-.04.76-.09 1.52-.15 2.27-.3 3.69-.8 7.19-1.51 10.5-.99 4.63-2.38 8.88-4.18 12.71-4.03 8.62-9.56 15.14-16.44 19.42-.17.11-.35.22-.54.34-.12.07-.25.14-.37.21-.47.27-.94.54-1.41.8-6.72 3.67-13.47 5.39-21.1 5.39-6.65 0-12.87-1.25-18.47-3.71-.7-.31-1.4-.64-2.08-.99-4.79-2.45-9.15-5.87-12.96-10.21-4.34-4.94-7.76-11.25-10.17-18.71-.14-.42-.26-.86-.39-1.3-2.13-7.09-3.27-15.03-3.35-23.65-.09-9.06 1.01-17.38 3.26-24.68.19-.61.4-1.2.6-1.8.07-.2.14-.41.2-.61.07-.22.15-.44.24-.65.22-.64.46-1.26.71-1.87.06-.16.12-.33.19-.47.3-.74.61-1.47.94-2.17.08-.18.16-.34.24-.51.26-.56.54-1.11.81-1.66.1-.19.19-.38.29-.56.35-.67.71-1.33 1.09-1.97.04-.06.08-.12.12-.2.35-.6.72-1.18 1.1-1.76.08-.11.15-.22.23-.35.39-.59.8-1.16 1.21-1.71.02-.04.05-.08.08-.11.47-.64.97-1.26 1.47-1.85 1.92-2.27 4.05-4.29 6.34-6.05.11-.09.23-.17.34-.26h.01c.34-.27.7-.51 1.05-.75.27-.2.55-.4.82-.59.38-.25.76-.48 1.14-.71.27-.16.54-.34.8-.5.44-.25.89-.49 1.32-.72.24-.12.46-.26.69-.37.69-.35 1.39-.69 2.08-1v-.05Z" stroke-width="0" fill="currentColor"/>

<path class="letter-v" d="M117.98 117.89c-.25.14-.52.26-.79.37-.04.01-.08.03-.12.04-.25.1-.51.19-.77.25-.05.01-.1.02-.14.04-.29.07-.57.12-.87.16-.06 0-.12.01-.19.02-.3.04-.61.06-.92.06-3.48 0-6.59-2.2-7.73-5.48-.31-.89-30.83-88.36-30.84-88.41-2.38-7.14-4.73-12.38-6.93-15.59-1.97-2.87-5.47-4.32-10.37-4.32-4.13 0-7.3 1.29-9.99 4.06-.3.31-.57.62-.85.94-2.1 2.47-3.08 5.04-3.05 7.99.01 1.34.24 2.96.71 4.94.47 2.01 1.05 3.91 1.74 5.62.7 1.78 1.39 3.63 2.05 5.47.3.8 10.22 27 19.97 52.76 12.67 33.49 19.01 50.24 19.02 50.26 1.39 3.88 2.8 7.63 4.18 11.1 1.36 3.41 2.96 6.49 4.77 9.16 1.72 2.55 4.01 4.63 6.79 6.19 2.76 1.55 6.2 2.33 10.25 2.33s7.46-.8 10.2-2.37c1.72-1 3.24-2.18 4.53-3.53.26-.27.51-.55.75-.84l.43-.52c.32-.41.64-.82.92-1.26.12-.19.25-.39.37-.59 1.56-2.47 2.96-5.32 4.16-8.51 1.32-3.52 2.66-7.26 3.96-11.13 0 0 7.69-21.22 23.08-63.66 7.68-21.17 14.37-39.63 14.62-40.32.6-1.76 1.22-3.57 1.86-5.33.61-1.7 1.12-3.46 1.52-5.23.39-1.71.57-3.31.56-4.77-.02-2.01-.64-4.03-1.85-6.05-1.21-2.01-2.9-3.66-5.01-4.88a13.57 13.57 0 0 0-6.85-1.83c-3.36 0-6 .76-7.86 2.28-.25.21-.5.42-.72.64-1.56 1.44-2.71 3.01-3.42 4.69-.9 2.16-2.27 6.07-4.08 11.62l-29.23 89.08s-.03.07-.04.11c-.27.77-.65 1.5-1.11 2.13-.02.04-.05.06-.07.1-.22.3-.47.57-.74.84-.04.04-.07.06-.1.1l-.03.03c-.04.04-.07.06-.1.1-.2.19-.41.36-.62.52-.03.02-.05.04-.07.06-.24.16-.48.32-.72.46-.05.03-.11.06-.16.09H118Z" stroke-width="0" fill="currentColor"/>

<path class="letter-t-2" d="M229.13 196.53c5.08 4.29 8.89 8.9 11.31 13.69.54 1.07 1.02 2.16 1.45 3.23h26.87c4.47 0 8.14 3.62 8.18 8.06l1.05 108.84c.06 6.12 1.47 10.7 4.21 13.6 2.7 2.88 6.23 4.34 10.52 4.34s7.66-1.45 10.29-4.29c.2-.21.39-.45.57-.69.05-.07.11-.14.16-.21.14-.17.26-.36.39-.55 1.9-2.88 2.82-6.98 2.77-12.22l-1.05-108.84c-.04-4.44 3.56-8.06 8.01-8.06h28.77c5.07 0 8.86-1.09 11.28-3.22 2.38-2.11 3.53-4.84 3.49-8.36-.04-3.52-1.22-6.28-3.62-8.42-2.42-2.16-6.24-3.26-11.38-3.26H239.77c-4.87 0-8.58 1.07-11.02 3.17-.29.25-.56.51-.82.79-.25.27-.49.55-.71.85.66.5 1.3 1 1.91 1.52v.02Z" stroke-width="0" fill="currentColor"/>

<path class="letter-s" d="M223.54 339.61s.05-.02.08-.04c.09-.05.17-.1.26-.14.34-.19.66-.39.99-.59a58.5 58.5 0 0 0 3.4-2.22c.04-.02.06-.05.1-.08.18-.12.35-.26.52-.39.29-.21.59-.42.87-.65.16-.12.31-.25.48-.38.29-.22.59-.46.86-.69.21-.18.41-.36.62-.54.22-.19.45-.37.66-.57.22-.2.44-.41.66-.61.19-.18.39-.35.57-.54.28-.26.54-.54.8-.81.12-.12.25-.25.38-.37.25-.26.5-.54.74-.8.12-.14.26-.28.39-.41.22-.26.45-.52.67-.79.14-.16.27-.31.4-.47l.36-.45c.54-.66 1.05-1.35 1.54-2.04.14-.19.26-.37.39-.56.2-.3.41-.6.61-.91.21-.34.43-.69.64-1.04.23-.37.44-.75.65-1.12.55-.97 1.05-1.96 1.52-2.96.51-1.1.99-2.22 1.4-3.37.21-.58.41-1.16.6-1.75 1.47-4.63 2.2-9.56 2.15-14.75-.07-7.7-1.52-14.28-4.29-19.55-2.78-5.26-6.68-9.67-11.58-13.11-4.99-3.49-11.13-6.52-18.26-8.99-6.28-2.17-13.28-4.21-20.98-6.09-1.11-.27-2.25-.54-3.38-.81-.01 0-.04 0-.05-.01-7.14-1.78-12.34-3.17-15.46-4.11-3.22-.96-6.45-2.32-9.6-4.03-3.26-1.76-5.87-3.92-7.76-6.4-2.01-2.62-3-5.64-3.02-9.2 0-.38 0-.74.03-1.11 0-.11.02-.22.02-.35.03-.25.04-.5.07-.74.01-.14.04-.27.06-.41.04-.23.06-.44.11-.65.03-.15.06-.29.1-.44l.15-.61c.04-.15.09-.29.12-.44.06-.2.12-.4.19-.59.05-.15.1-.29.16-.44.07-.19.15-.39.24-.57.06-.14.12-.29.19-.43.02-.06.06-.14.09-.2 1.35-2.78 3.57-5.29 6.66-7.51 5.33-3.83 12.43-5.77 21.07-5.77 9.34 0 16.29 1.82 20.67 5.42 4.24 3.47 7.94 8.38 11 14.54 2.18 3.99 4.21 6.88 5.99 8.59 1.61 1.54 4.07 2.3 7.31 2.3.22 0 .45-.02.67-.04.21 0 .44 0 .65-.02.2-.02.39-.06.59-.09h.06c.62-.1 1.22-.21 1.8-.4.16-.05.31-.12.47-.19.23-.09.45-.16.66-.25.19-.09.36-.19.54-.29.17-.1.36-.17.54-.29.2-.12.39-.26.57-.39.15-.1.3-.19.45-.3.14-.11.27-.24.41-.35.19-.16.39-.31.56-.47.31-.3.62-.61.92-.96.3-.35.59-.69.85-1.04.09-.11.16-.24.25-.35 1.71-2.4 2.51-4.94 2.48-7.86-.04-3.91-1.12-8-3.21-12.16-2.11-4.18-5.48-8.24-10.04-12.08-4.57-3.84-10.4-6.99-17.32-9.32-6.95-2.35-15.33-3.54-24.89-3.54-11.98 0-22.51 1.8-31.29 5.35-1.62.66-3.18 1.37-4.67 2.13-6.44 3.32-11.55 7.65-15.21 12.93-4.51 6.48-6.74 13.98-6.67 22.33.09 8.77 2.33 16.19 6.69 22.03 4.39 5.92 10.41 10.66 17.87 14.09 7.63 3.51 17.22 6.63 28.53 9.25 8.57 1.95 15.54 3.83 20.69 5.57 5.34 1.81 9.8 4.47 13.22 7.93 3.56 3.6 5.38 8.29 5.44 13.97.04 3.86-.84 7.33-2.61 10.45-.14.24-.27.47-.41.7-.14.23-.29.45-.44.67-.06.1-.12.2-.2.29-.22.32-.47.65-.72.97-.04.05-.09.1-.12.16-.21.26-.44.52-.66.79-.1.11-.2.21-.29.33-.19.2-.38.41-.57.61-.11.11-.23.24-.35.35-.2.19-.4.39-.6.57-.12.11-.24.23-.36.34-.22.2-.45.39-.67.59-.11.1-.23.19-.34.29-.34.27-.69.55-1.05.82 0 0-.03.01-.04.02-6.19 4.63-14.35 6.98-24.24 6.98-7.19 0-13.12-1.17-17.64-3.48-4.52-2.31-8.1-5.32-10.62-8.91-2.45-3.48-4.77-7.85-6.88-12.98-1.63-4.08-3.51-7.04-5.72-9.05-2.11-1.92-4.51-2.82-7.55-2.82-3.72 0-6.82 1.24-9.17 3.67-.38.39-.7.77-1.01 1.17-1.74 2.22-2.55 4.7-2.52 7.7.06 6.37 2.33 13.04 6.73 19.86 4.43 6.85 10.25 12.41 17.29 16.51 9.96 5.73 22.8 8.64 38.17 8.64 12.82 0 24.02-2.13 33.29-6.34 1.61-.72 3.15-1.51 4.62-2.35l-.08-.02Z" stroke-width="0" fill="currentColor"/></svg>